<svg width="252" height="235" viewBox="0 0 252 235" fill="none" xmlns="http://www.w3.org/2000/svg">
<g clip-path="url(#clip0_38_113)">
<path d="M36.9049 216.452C86.1137 239.903 165.893 239.91 215.102 216.452C264.311 192.994 264.304 154.975 215.102 131.524C165.901 108.072 86.1137 108.072 36.9049 131.524C-12.304 154.975 -12.2969 193.001 36.9049 216.452Z" fill="#F5F5F5"/>
<path d="M214.931 199.128C223.994 199.128 231.341 195.627 231.341 191.308C231.341 186.99 223.994 183.489 214.931 183.489C205.868 183.489 198.521 186.99 198.521 191.308C198.521 195.627 205.868 199.128 214.931 199.128Z" fill="#EBEBEB"/>
<path d="M33.1701 192.422L38.9758 189.073C42.2172 186.428 44.6844 182.957 46.1168 179.026C47.9092 174.084 47.6593 170.328 46.3739 168.443C44.7957 166.122 40.7039 166.529 40.5397 171.413C40.1969 181.04 37.3905 187.716 33.1701 192.422Z" fill="#27DEBF"/>
<path opacity="0.2" d="M33.1701 192.422L38.9758 189.073C42.2172 186.428 44.6844 182.957 46.1168 179.026C47.9092 174.084 47.6593 170.328 46.3739 168.443C44.7957 166.122 40.7039 166.529 40.5397 171.413C40.1969 181.04 37.3905 187.716 33.1701 192.422Z" fill="black"/>
<path d="M33.1701 192.779C33.0945 192.778 33.0211 192.754 32.9606 192.708C32.9 192.663 32.8554 192.6 32.8332 192.527C32.811 192.455 32.8122 192.378 32.8369 192.306C32.8615 192.235 32.9081 192.173 32.9701 192.13C46.3953 182.846 43.7959 169.9 43.7674 169.771C43.7575 169.724 43.757 169.676 43.7659 169.629C43.7747 169.582 43.7928 169.537 43.8189 169.497C43.8451 169.456 43.879 169.422 43.9185 169.395C43.9581 169.368 44.0026 169.349 44.0495 169.339C44.0963 169.329 44.1447 169.329 44.1918 169.337C44.2389 169.346 44.2838 169.364 44.3239 169.391C44.364 169.417 44.3986 169.451 44.4256 169.49C44.4527 169.53 44.4716 169.574 44.4815 169.621C44.4815 169.757 47.2236 183.146 33.3986 192.715C33.3315 192.761 33.2512 192.784 33.1701 192.779Z" fill="white"/>
<path d="M21.5373 199.142C21.5373 199.142 19.5164 197.5 20.002 195.272C20.4876 193.044 21.7944 191.444 19.5593 188.573C17.3241 185.703 16.7029 181.875 19.3736 179.804C21.4088 178.197 24.5866 180.468 25.7291 176.234C26.5718 173.134 26.2861 166.272 30.2351 163.987C34.1841 161.702 36.6621 165.144 36.0408 169.799C35.4981 173.963 34.7268 177.969 35.3267 179.083C36.4835 181.225 38.4616 180.932 38.3688 184.846C38.2902 188.488 34.8411 191.501 34.8411 191.501L21.5373 199.142Z" fill="#27DEBF"/>
<path d="M28.1714 195.65C28.0841 195.649 28 195.617 27.9345 195.559C27.8689 195.502 27.8263 195.422 27.8143 195.336C26.7932 186.874 29.2425 172.263 31.242 167.921C31.2589 167.873 31.2858 167.829 31.3211 167.792C31.3564 167.756 31.3991 167.727 31.4465 167.708C31.4938 167.689 31.5447 167.68 31.5957 167.683C31.6466 167.685 31.6965 167.698 31.7419 167.722C31.7845 167.741 31.8229 167.768 31.8547 167.803C31.8865 167.837 31.9111 167.877 31.9271 167.921C31.9431 167.965 31.9501 168.012 31.9477 168.058C31.9453 168.105 31.9336 168.151 31.9133 168.193C29.9352 172.477 27.5715 187.131 28.5499 195.222C28.5599 195.315 28.5325 195.409 28.4736 195.483C28.4148 195.556 28.3292 195.604 28.2356 195.614L28.1714 195.65Z" fill="white"/>
<path d="M27.9785 189.059C27.9239 189.062 27.8696 189.049 27.8214 189.023C25.3435 187.816 23.7725 183.51 23.7082 183.31C23.6907 183.266 23.6823 183.218 23.6835 183.171C23.6846 183.123 23.6953 183.076 23.715 183.032C23.7346 182.989 23.7628 182.95 23.7979 182.917C23.8329 182.885 23.8741 182.86 23.919 182.844C23.9638 182.827 24.0115 182.82 24.0592 182.823C24.1069 182.825 24.1536 182.837 24.1965 182.858C24.2394 182.879 24.2778 182.908 24.3092 182.944C24.3406 182.98 24.3645 183.022 24.3795 183.068C24.3795 183.11 25.9148 187.281 28.1356 188.359C28.2085 188.394 28.2672 188.453 28.3021 188.526C28.3371 188.599 28.3461 188.682 28.3279 188.761C28.3096 188.84 28.2651 188.91 28.2016 188.96C28.1381 189.011 28.0595 189.038 27.9785 189.037V189.059Z" fill="white"/>
<path d="M27.9357 191.915C27.8642 191.915 27.7943 191.893 27.7356 191.853C27.6768 191.812 27.6321 191.754 27.6072 191.687C27.5717 191.6 27.572 191.502 27.6081 191.415C27.6442 191.328 27.7132 191.259 27.8 191.223C31.9704 189.552 34.5697 184.589 34.5983 184.531C34.6419 184.447 34.7171 184.384 34.8075 184.355C34.8979 184.326 34.996 184.334 35.0803 184.378C35.1646 184.422 35.2281 184.497 35.2569 184.587C35.2857 184.678 35.2774 184.776 35.2339 184.86C35.1196 185.074 32.4846 190.116 28.0928 191.887C28.0439 191.91 27.9897 191.92 27.9357 191.915Z" fill="white"/>
<path d="M173.706 153.497C173.706 153.497 170.585 148.441 170.278 142.949C169.971 137.458 171.178 135.173 172.834 134.516C174.491 133.859 174.62 135.88 175.469 137.072C176.319 138.265 178.055 137.586 178.697 133.866C179.34 130.145 181.682 123.868 186.552 122.647C191.908 121.319 189.037 127.603 187.688 130.052C186.338 132.502 185.296 135.844 186.181 136.751C187.067 137.658 188.445 135.98 189.752 137.536C191.344 139.414 186.395 146.177 183.553 147.812L173.706 153.497Z" fill="#27DEBF"/>
<path d="M177.983 151.376C177.936 151.374 177.89 151.363 177.848 151.343C177.805 151.323 177.767 151.296 177.735 151.261C177.703 151.227 177.678 151.186 177.662 151.142C177.646 151.098 177.638 151.051 177.64 151.004C178.124 142.171 180.879 133.611 185.638 126.154C185.665 126.115 185.7 126.082 185.74 126.057C185.78 126.032 185.825 126.015 185.871 126.007C185.918 126 185.966 126.002 186.012 126.014C186.058 126.026 186.101 126.046 186.138 126.075C186.213 126.131 186.263 126.213 186.278 126.305C186.293 126.397 186.271 126.492 186.217 126.568C181.542 133.916 178.837 142.344 178.362 151.04C178.359 151.087 178.347 151.133 178.326 151.175C178.306 151.217 178.277 151.255 178.242 151.286C178.207 151.318 178.166 151.342 178.122 151.357C178.077 151.372 178.03 151.379 177.983 151.376Z" fill="white"/>
<path d="M178.39 147.155C178.33 147.155 178.272 147.14 178.219 147.112C176.219 146.006 175.112 142.721 175.07 142.585C175.054 142.54 175.047 142.493 175.05 142.446C175.052 142.399 175.064 142.353 175.085 142.31C175.105 142.268 175.134 142.23 175.17 142.199C175.205 142.167 175.246 142.143 175.291 142.128C175.381 142.099 175.479 142.106 175.563 142.149C175.648 142.192 175.711 142.267 175.741 142.357C175.741 142.357 176.812 145.52 178.597 146.484C178.678 146.532 178.737 146.609 178.763 146.7C178.788 146.79 178.777 146.887 178.733 146.97C178.701 147.031 178.651 147.082 178.59 147.115C178.529 147.148 178.459 147.162 178.39 147.155Z" fill="white"/>
<path d="M178.74 144.992C178.661 144.991 178.584 144.964 178.522 144.914C178.46 144.865 178.416 144.797 178.397 144.72C178.386 144.675 178.383 144.628 178.39 144.582C178.396 144.536 178.412 144.492 178.436 144.452C178.46 144.412 178.492 144.377 178.529 144.35C178.567 144.322 178.609 144.303 178.654 144.292C183.81 142.985 185.596 140.286 185.61 140.257C185.635 140.217 185.668 140.183 185.707 140.156C185.745 140.128 185.789 140.109 185.835 140.099C185.881 140.089 185.929 140.088 185.975 140.096C186.022 140.104 186.066 140.121 186.106 140.146C186.146 140.172 186.18 140.205 186.208 140.243C186.235 140.282 186.254 140.326 186.264 140.372C186.275 140.418 186.276 140.465 186.267 140.512C186.259 140.558 186.242 140.603 186.217 140.643C186.138 140.764 184.282 143.599 178.833 144.984L178.74 144.992Z" fill="white"/>
<path d="M96.0112 142.399C96.0112 142.399 89.163 140.728 88.8059 127.903C88.4274 114.064 90.484 97.9107 82.379 96.6039C74.2739 95.2971 69.775 105.173 69.875 116.706C69.9678 126.803 74.0382 148.726 95.9826 153.025L96.0112 142.399Z" fill="#27DEBF"/>
<path opacity="0.2" d="M96.0112 142.399C96.0112 142.399 89.163 140.728 88.8059 127.903C88.4274 114.064 90.484 97.9107 82.379 96.6039C74.2739 95.2971 69.775 105.173 69.875 116.706C69.9678 126.803 74.0382 148.726 95.9826 153.025L96.0112 142.399Z" fill="black"/>
<path d="M96.0112 151.711H95.9469C91.0125 150.812 86.9921 148.091 84 143.635C75.1308 130.402 77.923 105.695 78.8442 101.381C78.8648 101.289 78.9201 101.209 78.9987 101.157C79.0773 101.105 79.1729 101.086 79.2655 101.103C79.3579 101.125 79.4383 101.182 79.4901 101.262C79.542 101.341 79.5612 101.438 79.544 101.531C78.6371 105.816 75.8592 130.21 84.5927 143.235C85.8639 145.255 87.5411 146.989 89.5178 148.326C91.4945 149.663 93.7276 150.576 96.0755 151.004C96.1221 151.013 96.1665 151.031 96.2062 151.057C96.2458 151.082 96.28 151.116 96.3065 151.155C96.3331 151.194 96.3516 151.239 96.361 151.285C96.3704 151.331 96.3704 151.379 96.3611 151.426C96.3459 151.507 96.3025 151.58 96.2384 151.633C96.1744 151.685 96.0939 151.713 96.0112 151.711Z" fill="white"/>
<path d="M96.0112 184.624C88.9344 185.581 77.4445 185.567 70.8105 180.34C64.1765 175.112 65.5618 170.614 68.1112 168.736C70.6605 166.857 72.8743 164.715 68.4897 160.545C64.1051 156.374 57.064 149.676 54.7789 139.629C52.4937 129.581 53.622 123.297 58.1066 121.205C62.4555 119.177 63.6052 122.404 66.2688 129.06C68.9324 135.715 74.9237 130.01 80.051 132.088C85.1782 134.166 84.9712 138.279 85.2925 141.814C85.6139 145.349 87.3063 146.327 90.2127 146.327C93.1191 146.327 96.0112 147.998 96.0112 151.326V184.624Z" fill="#27DEBF"/>
<path d="M96.0112 172.956C95.9806 172.963 95.9489 172.963 95.9184 172.956C95.6113 172.87 88.2917 170.742 77.6302 160.952C66.2759 150.526 60.9202 134.887 60.863 134.73C60.8357 134.64 60.8442 134.543 60.8867 134.459C60.9293 134.375 61.0027 134.311 61.0915 134.28C61.1806 134.25 61.2777 134.257 61.3619 134.298C61.4461 134.34 61.5106 134.413 61.5414 134.501C61.5914 134.658 66.8972 150.126 78.1158 160.423C88.6274 170.085 96.0326 172.249 96.1112 172.27C96.1562 172.283 96.1982 172.305 96.2347 172.335C96.2713 172.364 96.3017 172.4 96.3243 172.441C96.3468 172.482 96.361 172.528 96.3661 172.574C96.3712 172.621 96.3671 172.668 96.354 172.713C96.3308 172.785 96.2849 172.848 96.2231 172.892C96.1613 172.935 96.0869 172.958 96.0112 172.956Z" fill="white"/>
<path d="M80.608 163.437C80.5362 163.438 80.4659 163.417 80.4069 163.376C80.348 163.335 80.3034 163.276 80.2795 163.208C77.9872 157.324 77.4659 144.735 77.4231 144.199C77.4211 144.105 77.4557 144.013 77.5196 143.944C77.5835 143.875 77.6718 143.833 77.7659 143.828C77.8591 143.829 77.9486 143.865 78.0171 143.928C78.0856 143.991 78.1284 144.078 78.1372 144.17C78.1372 144.299 78.6728 157.174 80.9222 162.951C80.9394 162.995 80.9477 163.042 80.9466 163.09C80.9454 163.137 80.9349 163.184 80.9157 163.227C80.8964 163.27 80.8688 163.309 80.8343 163.341C80.7999 163.374 80.7594 163.399 80.7151 163.415C80.6807 163.428 80.6445 163.435 80.608 163.437Z" fill="white"/>
<path d="M80.5509 171.899C79.8925 171.904 79.2344 171.871 78.5799 171.799C78.533 171.793 78.4877 171.779 78.4465 171.755C78.4054 171.732 78.3692 171.701 78.34 171.664C78.3108 171.627 78.2892 171.584 78.2765 171.539C78.2638 171.494 78.2601 171.446 78.2657 171.399C78.2713 171.352 78.2861 171.307 78.3093 171.266C78.3324 171.225 78.3635 171.188 78.4006 171.159C78.4377 171.13 78.4802 171.108 78.5257 171.096C78.5712 171.083 78.6187 171.079 78.6656 171.085C78.7299 171.085 85.3782 171.842 88.4274 168.736C88.4606 168.702 88.5001 168.675 88.5436 168.657C88.5871 168.639 88.6338 168.63 88.6809 168.63C88.7281 168.63 88.7747 168.639 88.8182 168.657C88.8617 168.675 88.9012 168.702 88.9344 168.736C88.9677 168.768 88.9941 168.807 89.0121 168.85C89.0302 168.893 89.0395 168.939 89.0395 168.985C89.0395 169.032 89.0302 169.078 89.0121 169.121C88.9941 169.164 88.9677 169.203 88.9344 169.235C86.7278 171.513 82.8788 171.899 80.5509 171.899Z" fill="white"/>
<path d="M75.4093 36.6765L74.6381 32.2276L70.6677 34.8412C70.3049 34.1272 69.7907 33.5009 69.1609 33.006L71.0604 27.8644L67.4899 27.0718L64.8763 32.0705C63.9287 32.2311 63.0097 32.5294 62.1484 32.956L61.0201 29.1855L56.7784 32.5204L57.0569 36.9478C56.1931 37.9154 55.4097 38.9519 54.7146 40.047L51.2155 39.8685L48.759 45.3743L51.7654 46.6596C51.4515 47.7984 51.2529 48.9659 51.1727 50.1445L47.3522 53.6579L48.1163 58.1139L52.0939 55.5002C52.4546 56.2137 52.9692 56.8381 53.6006 57.3283L51.7368 62.477L55.3073 63.2625L59.0492 59.6206C59.9133 59.4849 59.6991 57.8568 60.6417 57.3926L61.7771 61.1488L66.0117 57.8211L65.9046 56.0787C66.7615 55.1218 70.0036 53.0152 70.7034 51.9154L71.5817 50.4872L74.0382 44.9815L72.8957 42.9106L71.6246 40.2113L75.4093 36.6765ZM62.4483 51.3227C59.192 53.8792 58.1637 54.4434 57.6139 51.0228C57.064 47.6023 58.9278 42.4036 62.1841 39.8399C65.4404 37.2763 66.683 37.0978 67.2685 40.5112C67.8541 43.9246 65.7118 48.7948 62.4483 51.3227Z" fill="#E0E0E0"/>
<path d="M67.5185 27.0789L72.1459 29.7496L69.5323 34.7269L64.9049 32.0633L67.5185 27.0789Z" fill="#F5F5F5"/>
<path d="M79.2655 34.8983L75.2951 37.5119L70.6677 34.8483L74.6381 32.2275L79.2655 34.8983Z" fill="#F5F5F5"/>
<path d="M78.63 47.6379L75.6236 46.3525L70.9962 43.6818L74.0026 44.9672L78.63 47.6379Z" fill="#E0E0E0"/>
<path d="M51.7297 62.477L56.3571 65.1477L58.2566 60.0062L53.6292 57.3354L51.7297 62.477Z" fill="#E0E0E0"/>
<path d="M66.3688 63.8266L61.7343 61.1558L60.606 57.3997L65.2334 60.0704L66.3688 63.8266Z" fill="#E0E0E0"/>
<path d="M80.0367 39.3471L79.2726 34.8983L75.3022 37.5119C74.9368 36.7975 74.4202 36.1712 73.7883 35.6766L75.6878 30.5351L72.153 29.7424L69.5323 34.7412C68.5867 34.9007 67.6699 35.1991 66.8115 35.6266L65.6833 31.8705L61.4415 35.2053L61.72 39.6328C60.8552 40.6072 60.0719 41.6509 59.3777 42.7534L55.8715 42.5749L53.415 48.0806L56.4213 49.366C56.1103 50.5079 55.9118 51.6774 55.8286 52.858L52.0153 56.3214L52.7794 60.7774L56.7498 58.1638C57.1154 58.8761 57.632 59.5 58.2637 59.9919L56.3642 65.1334L59.9347 65.9261L62.5483 60.9273C63.4976 60.7696 64.4174 60.4686 65.2762 60.0347L66.4045 63.7909L70.6463 60.4632L70.3678 56.0357C71.2316 55.0681 72.0149 54.0316 72.71 52.9365L76.2163 53.1079L78.6728 47.6022L75.6236 46.3239C75.9397 45.1829 76.1407 44.0131 76.2234 42.832L80.0367 39.3471ZM67.09 54.022C63.8409 56.5784 60.7274 55.8858 60.1347 52.4723C59.542 49.0589 61.7057 44.2102 64.962 41.6537C68.2183 39.0972 71.3247 39.797 71.9174 43.2104C72.5101 46.6238 70.3464 51.4655 67.09 54.022Z" fill="#EBEBEB"/>
<path d="M65.6761 31.8634L61.0416 29.1926L56.8069 32.5275L61.4343 35.1911L65.6761 31.8634Z" fill="#F5F5F5"/>
<path d="M56.8069 32.5275L57.0854 36.9478L61.7128 39.6185L61.4343 35.1911L56.8069 32.5275Z" fill="#E0E0E0"/>
<path d="M59.3706 42.7177L54.7432 40.047L51.2369 39.8756L55.8715 42.5464L59.3706 42.7177Z" fill="#F5F5F5"/>
<path d="M51.2369 39.8756L48.7804 45.3813L53.415 48.0521L55.8715 42.5464L51.2369 39.8756Z" fill="#E0E0E0"/>
<path d="M55.8286 52.8224L51.1941 50.1516L47.3808 53.665L52.0082 56.3357L55.8286 52.8224Z" fill="#F5F5F5"/>
<path d="M52.7723 60.7845L48.1449 58.1138L47.3808 53.6649L52.0082 56.3357L52.7723 60.7845Z" fill="#E0E0E0"/>
<path d="M72.1459 29.7496L67.5185 27.0789L71.0533 27.8715L75.6878 30.5423L72.1459 29.7496Z" fill="#F5F5F5"/>
<path d="M54.6575 16.4816V9.83327L49.366 12.2184C49.0857 11.0904 48.6017 10.0231 47.9378 9.06918L51.2726 2.34946L47.2022 -0.00708008L43.0462 6.24846C41.888 6.14728 40.721 6.26107 39.6042 6.58409L39.0186 0.806998L33.2629 4.13472L32.6845 10.5616C31.4319 11.6716 30.2801 12.8903 29.2425 14.2036L25.0865 12.7754L21.0161 19.8307L24.3438 22.6871C23.7289 24.2421 23.251 25.8478 22.9156 27.4859L17.6241 31.2064V37.8618L22.9156 35.4767C23.1959 36.6047 23.6799 37.6719 24.3438 38.6259L21.0304 45.3528L25.1007 47.7022L29.2568 41.4538C30.415 41.5546 31.5819 41.4408 32.6988 41.1181L33.2772 46.8952L39.0329 43.5675L39.6185 37.1406C41.4149 36.4851 43.0063 35.3667 44.2316 33.8986L47.2165 34.9483L51.2869 27.9001L48.7876 25.7578C49.3301 23.9713 49.5312 22.0987 49.3803 20.2378L54.6575 16.4816ZM36.1408 33.0916C31.7276 35.641 28.9998 33.8057 28.9998 28.7284C28.9998 23.6512 32.6488 17.3742 37.0691 14.8248C41.4894 12.2755 44.1602 14.1107 44.1602 19.2309C44.1602 24.351 40.5611 30.5351 36.1408 33.0916Z" fill="#E0E0E0"/>
<path d="M51.8296 2.67075L47.1951 0L43.039 6.24841L47.6736 8.91915L51.8296 2.67075Z" fill="#F5F5F5"/>
<path d="M59.2849 12.5112L54.6575 9.84045L49.366 12.2256L53.9934 14.8963L59.2849 12.5112Z" fill="#F5F5F5"/>
<path d="M37.8904 49.5731L33.263 46.8952L32.6774 41.1252L37.3119 43.796L37.8904 49.5731Z" fill="#E0E0E0"/>
<path d="M21.0089 45.3599L25.6435 48.0307L28.9783 41.3038L24.3438 38.6331L21.0089 45.3599Z" fill="#E0E0E0"/>
<path d="M59.292 19.1881V12.5398L54.0005 14.9034C53.7232 13.7745 53.2389 12.7067 52.5723 11.7542L55.9072 5.03452L51.8368 2.67798L47.6807 8.93353C46.5225 8.82882 45.3549 8.94268 44.2387 9.26916L43.6531 3.47778L37.8975 6.8055L37.3119 13.2324C36.0611 14.3442 34.9094 15.5628 33.8699 16.8744L29.7138 15.4462L25.6435 22.5015L28.9783 25.3579C28.3602 26.9117 27.8822 28.5177 27.5501 30.1567L22.2586 33.8772V40.5326L27.5501 38.1475C27.8273 39.2765 28.3116 40.3443 28.9783 41.2967L25.6435 48.0164L29.7138 50.3658L33.8699 44.1174C35.0281 44.2186 36.1951 44.1048 37.3119 43.7818L37.8975 49.5589L43.6531 46.2312L44.2316 39.8042C45.4842 38.6943 46.636 37.4755 47.6735 36.1623L51.8296 37.5905L55.9 30.5423L52.5652 27.6859C53.1831 26.132 53.6611 24.526 53.9934 22.8871L59.292 19.1881ZM40.7753 35.7981C36.355 38.3474 32.7702 36.2765 32.7702 31.1778C32.7702 26.0791 36.3407 19.8736 40.7753 17.3171C45.2099 14.7606 48.7733 16.8387 48.7733 21.9374C48.7733 27.0361 45.1885 33.2059 40.7753 35.7624V35.7981Z" fill="#EBEBEB"/>
<path d="M29.2354 14.2178L33.8699 16.8886L29.7138 15.4389L25.0793 12.7682L29.2354 14.2178Z" fill="#F0F0F0"/>
<path d="M25.086 12.7683L21.0145 19.826L25.6475 22.4987L29.719 15.441L25.086 12.7683Z" fill="#F5F5F5"/>
<path d="M21.0089 19.8236L25.6435 22.4944L28.9783 25.3651L24.3438 22.6943L21.0089 19.8236Z" fill="#E0E0E0"/>
<path d="M22.9156 27.493L27.543 30.1638L22.2515 33.8914L17.6241 31.2207L22.9156 27.493Z" fill="#F5F5F5"/>
<path d="M17.6241 31.2207L22.2515 33.8914V40.5398L17.6241 37.869V31.2207Z" fill="#E0E0E0"/>
<path d="M43.6531 3.47775L39.0186 0.807007L33.2629 4.13473L37.8903 6.80548L43.6531 3.47775Z" fill="#F5F5F5"/>
<path d="M103.067 194.179L170.192 155.417C170.34 155.366 170.468 155.269 170.559 155.141C170.65 155.013 170.698 154.86 170.698 154.703C170.698 154.547 170.65 154.394 170.559 154.266C170.468 154.138 170.34 154.041 170.192 153.989L163.987 150.419C163.602 150.225 163.178 150.125 162.748 150.125C162.317 150.125 161.893 150.225 161.509 150.419L94.3616 189.145C94.2138 189.197 94.0857 189.293 93.995 189.421C93.9044 189.549 93.8557 189.702 93.8557 189.859C93.8557 190.015 93.9044 190.168 93.995 190.296C94.0857 190.424 94.2138 190.521 94.3616 190.573L100.589 194.143C100.97 194.342 101.393 194.449 101.823 194.455C102.254 194.462 102.679 194.367 103.067 194.179Z" fill="#E0E0E0"/>
<path d="M168.35 5.76273L107.822 40.711C106.923 41.2982 106.174 42.089 105.637 43.0195C105.1 43.95 104.789 44.9939 104.73 46.0667V189.652C104.73 191.622 106.116 192.422 107.822 191.437L168.35 156.489C169.251 155.903 170.001 155.112 170.538 154.181C171.075 153.251 171.385 152.206 171.442 151.133V7.54799C171.442 5.57706 170.064 4.77727 168.35 5.76273Z" fill="#455A64"/>
<path d="M107.822 40.711L168.35 5.76279C169.878 4.8773 171.142 5.42716 171.399 6.96248C171.256 5.99719 170.911 5.07306 170.385 4.25089C169.86 3.42872 169.166 2.72712 168.35 2.19227L165.836 0.764061C164.878 0.2779 163.819 0.0245361 162.744 0.0245361C161.67 0.0245361 160.61 0.2779 159.652 0.764061L99.1176 35.6837C98.2058 36.2554 97.454 37.049 96.9324 37.9903L105.637 42.989C106.159 42.0552 106.911 41.2708 107.822 40.711Z" fill="#37474F"/>
<path d="M96.0112 184.624C96.0699 185.697 96.3803 186.741 96.9175 187.671C97.4547 188.602 98.2035 189.393 99.1033 189.98L101.624 191.408C102.497 191.845 103.451 192.092 104.426 192.134C105.401 192.176 106.373 192.011 107.28 191.651C105.852 192.208 104.716 191.387 104.716 189.623V46.0667C104.752 44.9894 105.064 43.9393 105.623 43.0175L96.9181 38.0188C96.3671 38.9336 96.0552 39.9724 96.0112 41.0395V184.624Z" fill="#263238"/>
<path d="M109.486 59.8419L166.707 26.8146C167.736 26.229 168.564 26.7075 168.564 27.8857V134.159C168.53 134.803 168.344 135.43 168.021 135.988C167.698 136.546 167.248 137.021 166.707 137.372L109.508 170.399C108.479 170.992 107.651 170.514 107.651 169.328V63.0553C107.684 62.4133 107.867 61.7879 108.185 61.2297C108.504 60.6715 108.95 60.1961 109.486 59.8419Z" fill="white"/>
<path d="M138.086 28.6784C137.77 28.8857 137.508 29.1643 137.319 29.4918C137.131 29.8192 137.022 30.1863 137.001 30.5636C137.001 31.2777 137.486 31.5419 138.086 31.192C138.403 30.9859 138.667 30.7076 138.856 30.3799C139.044 30.0522 139.153 29.6844 139.172 29.3068C139.172 28.6141 138.686 28.3356 138.086 28.6784Z" fill="#37474F"/>
<path d="M138.086 158.967C136.838 159.783 135.799 160.882 135.055 162.175C134.311 163.468 133.881 164.918 133.802 166.408C133.802 169.143 135.723 170.257 138.086 168.885C139.334 168.068 140.372 166.969 141.117 165.676C141.861 164.384 142.291 162.934 142.371 161.445C142.385 158.709 140.457 157.595 138.086 158.967Z" fill="#37474F"/>
<path d="M127.81 39.7327C127.183 40.1493 126.662 40.7076 126.29 41.3625C125.918 42.0175 125.705 42.7508 125.668 43.5031C125.668 44.8885 126.639 45.4526 127.81 44.76C128.444 44.3473 128.972 43.7907 129.351 43.1356C129.729 42.4804 129.948 41.7451 129.988 40.9895C129.988 39.6041 129.017 39.04 127.81 39.7327Z" fill="#37474F"/>
<path d="M133.145 39.2614C133.145 40.1897 133.859 40.5396 134.694 40.0469L148.976 31.7847C149.419 31.5084 149.79 31.1316 150.059 30.6849C150.328 30.2381 150.488 29.7342 150.526 29.2139C150.526 28.2927 149.812 27.9428 148.976 28.4356L134.694 36.6977C134.253 36.9733 133.882 37.349 133.613 37.7944C133.344 38.2398 133.183 38.7424 133.145 39.2614Z" fill="#37474F"/>
<path d="M100.839 64.4407C101.345 64.7708 101.767 65.2156 102.07 65.7392C102.373 66.2628 102.548 66.8503 102.581 67.4542C102.581 68.5682 101.803 69.0181 100.839 68.4611C100.334 68.1298 99.9134 67.6845 99.612 67.161C99.3106 66.6376 99.1363 66.0507 99.1033 65.4476C99.1033 64.3407 99.8817 63.8908 100.839 64.4407Z" fill="#37474F"/>
<path d="M100.839 77.8516C101.345 78.1817 101.767 78.6265 102.07 79.1501C102.373 79.6737 102.548 80.2612 102.581 80.8651C102.581 81.972 101.803 82.4219 100.839 81.872C100.334 81.5407 99.9134 81.0954 99.612 80.5719C99.3106 80.0485 99.1363 79.4616 99.1033 78.8585C99.1033 77.7445 99.8817 77.2946 100.839 77.8516Z" fill="#37474F"/>
<path d="M100.296 64.7121C100.803 65.0422 101.224 65.487 101.527 66.0106C101.83 66.5342 102.005 67.1217 102.038 67.7256C102.038 68.8324 101.26 69.2823 100.296 68.7325C99.7891 68.4024 99.3672 67.9575 99.0645 67.4339C98.7618 66.9104 98.5867 66.3228 98.5534 65.7189C98.5606 64.6049 99.339 64.1765 100.296 64.7121Z" fill="#455A64"/>
<path d="M100.296 78.1157C100.804 78.4465 101.226 78.8925 101.529 79.4174C101.832 79.9423 102.006 80.5313 102.038 81.1364C102.038 82.2432 101.26 82.6931 100.296 82.1361C99.7879 81.8073 99.3651 81.3627 99.0623 80.8389C98.7594 80.3151 98.585 79.7269 98.5534 79.1226C98.5606 78.0157 99.339 77.5659 100.296 78.1157Z" fill="#455A64"/>
<path d="M180.147 31.2491C180.147 30.0637 179.319 29.5853 178.29 30.178L171.442 34.127L121.091 63.2053C120.55 63.5567 120.1 64.031 119.777 64.5894C119.454 65.1479 119.268 65.7747 119.234 66.4188V172.663C119.234 173.849 120.062 174.327 121.091 173.734L171.463 144.649L178.29 140.707C178.831 140.356 179.281 139.881 179.604 139.323C179.927 138.764 180.113 138.138 180.147 137.493V31.2491Z" fill="white" stroke="#27DEBF" stroke-miterlimit="10"/>
<path d="M120.291 174.348C120.038 174.352 119.791 174.282 119.577 174.148C119.333 173.983 119.139 173.755 119.013 173.489C118.888 173.223 118.836 172.928 118.863 172.635V66.4188C118.895 65.7119 119.097 65.0232 119.451 64.4106C119.805 63.798 120.301 63.2793 120.898 62.8982L171.249 33.8199L171.606 34.4412L121.255 63.5124C120.769 63.834 120.365 64.2638 120.074 64.7681C119.783 65.2725 119.612 65.8375 119.577 66.4188V172.663C119.527 172.832 119.536 173.012 119.601 173.176C119.667 173.339 119.785 173.476 119.937 173.564C120.09 173.652 120.267 173.686 120.441 173.661C120.615 173.637 120.776 173.554 120.898 173.427L171.271 144.342L171.628 144.963L121.255 174.048C120.963 174.227 120.632 174.33 120.291 174.348Z" fill="#27DEBF" stroke="#27DEBF" stroke-miterlimit="10"/>
<path d="M171.642 144.963L171.285 144.342L178.112 140.4C178.597 140.078 179.001 139.648 179.293 139.144C179.584 138.64 179.754 138.075 179.79 137.493V31.2492C179.839 31.0803 179.831 30.8998 179.765 30.7365C179.7 30.5732 179.582 30.4366 179.429 30.3485C179.277 30.2604 179.1 30.226 178.925 30.2508C178.751 30.2755 178.59 30.358 178.469 30.4851L171.621 34.4412L171.263 33.8199L178.133 29.8995C178.365 29.7108 178.649 29.5971 178.947 29.5732C179.246 29.5493 179.544 29.6165 179.803 29.7658C180.062 29.9152 180.27 30.1396 180.399 30.4096C180.528 30.6795 180.572 30.9822 180.525 31.2777V137.493C180.492 138.201 180.29 138.891 179.936 139.504C179.582 140.118 179.086 140.638 178.49 141.021L171.642 144.963Z" fill="#27DEBF" stroke="#27DEBF" stroke-miterlimit="10"/>
<path d="M149.69 55.9357C156.117 52.2366 161.295 55.2216 161.295 62.6411C161.295 70.0606 156.096 79.0655 149.69 82.736C143.285 86.4065 138.086 83.4501 138.086 76.0377C138.086 68.6253 143.285 59.6419 149.69 55.9357Z" fill="#27DEBF"/>
<path d="M149.69 61.7628C151.768 60.5631 153.454 61.5343 153.454 63.9051C153.383 65.2111 153.006 66.4822 152.352 67.615C151.698 68.7478 150.786 69.7105 149.69 70.4248C147.612 71.6245 145.927 70.6534 145.927 68.2825C145.998 66.9765 146.375 65.7055 147.029 64.5726C147.683 63.4398 148.595 62.4772 149.69 61.7628Z" fill="#27DEBF"/>
<path d="M157.024 74.5595C157.024 70.6176 154.261 69.018 150.84 70.989L148.698 72.2244C145.284 74.1953 142.514 78.9941 142.514 82.9359V83.9999C144.492 84.6498 146.977 84.2999 149.655 82.736C152.621 80.9061 155.13 78.422 156.989 75.4735L157.024 74.5595Z" fill="#27DEBF"/>
<path opacity="0.7" d="M149.69 61.7628C151.768 60.5631 153.454 61.5343 153.454 63.9051C153.383 65.2111 153.006 66.4822 152.352 67.615C151.698 68.7478 150.786 69.7105 149.69 70.4248C147.612 71.6245 145.927 70.6534 145.927 68.2825C145.998 66.9765 146.375 65.7055 147.029 64.5726C147.683 63.4398 148.595 62.4772 149.69 61.7628Z" fill="white"/>
<path opacity="0.7" d="M157.024 74.5595C157.024 70.6176 154.261 69.018 150.84 70.989L148.698 72.2244C145.284 74.1953 142.514 78.9941 142.514 82.9359V83.9999C144.492 84.6498 146.977 84.2999 149.655 82.736C152.621 80.9061 155.13 78.422 156.989 75.4735L157.024 74.5595Z" fill="white"/>
<path d="M127.239 99.0533L142.171 90.434C142.885 90.0413 143.406 90.3555 143.406 91.1481V91.6409C143.384 92.07 143.26 92.4878 143.045 92.8601C142.831 93.2324 142.531 93.5487 142.171 93.7832L127.239 102.402C126.561 102.795 126.004 102.474 126.004 101.688V101.196C126.027 100.767 126.151 100.349 126.365 99.9768C126.58 99.6046 126.879 99.2882 127.239 99.0533Z" fill="#27DEBF"/>
<path opacity="0.1" d="M127.239 99.0533L142.171 90.434C142.885 90.0413 143.406 90.3555 143.406 91.1481V91.6409C143.384 92.07 143.26 92.4878 143.045 92.8601C142.831 93.2324 142.531 93.5487 142.171 93.7832L127.239 102.402C126.561 102.795 126.004 102.474 126.004 101.688V101.196C126.027 100.767 126.151 100.349 126.365 99.9768C126.58 99.6046 126.879 99.2882 127.239 99.0533Z" fill="black"/>
<path d="M126.625 109.458L171.799 83.3787C172.135 83.1787 172.413 83.3358 172.413 83.7357V89.0058C172.401 89.2197 172.339 89.4277 172.232 89.6136C172.125 89.7994 171.977 89.9581 171.799 90.077L126.625 116.156C126.282 116.356 126.004 116.192 126.004 115.799V110.529C126.016 110.314 126.078 110.105 126.186 109.919C126.294 109.733 126.445 109.575 126.625 109.458Z" fill="#27DEBF"/>
<path opacity="0.2" d="M126.625 109.458L171.799 83.3787C172.135 83.1787 172.413 83.3358 172.413 83.7357V89.0058C172.401 89.2197 172.339 89.4277 172.232 89.6136C172.125 89.7994 171.977 89.9581 171.799 90.077L126.625 116.156C126.282 116.356 126.004 116.192 126.004 115.799V110.529C126.016 110.314 126.078 110.105 126.186 109.919C126.294 109.733 126.445 109.575 126.625 109.458Z" fill="white"/>
<path d="M127.239 122.497L142.171 113.878C142.885 113.485 143.406 113.807 143.406 114.592V115.085C143.384 115.514 143.261 115.932 143.046 116.305C142.831 116.677 142.531 116.993 142.171 117.227L127.239 125.846C126.561 126.246 126.004 125.925 126.004 125.132V124.64C126.028 124.211 126.152 123.794 126.367 123.422C126.581 123.05 126.88 122.733 127.239 122.497Z" fill="#27DEBF"/>
<path opacity="0.1" d="M127.239 122.497L142.171 113.878C142.885 113.485 143.406 113.807 143.406 114.592V115.085C143.384 115.514 143.261 115.932 143.046 116.305C142.831 116.677 142.531 116.993 142.171 117.227L127.239 125.846C126.561 126.246 126.004 125.925 126.004 125.132V124.64C126.028 124.211 126.152 123.794 126.367 123.422C126.581 123.05 126.88 122.733 127.239 122.497Z" fill="black"/>
<path d="M126.625 132.902L171.799 106.823C172.135 106.623 172.413 106.787 172.413 107.18V112.45C172.401 112.664 172.339 112.872 172.232 113.058C172.125 113.243 171.977 113.402 171.799 113.521L126.625 139.6C126.282 139.8 126.004 139.643 126.004 139.243V133.973C126.016 133.758 126.078 133.549 126.186 133.363C126.294 133.177 126.445 133.019 126.625 132.902Z" fill="#27DEBF"/>
<path opacity="0.2" d="M126.625 132.902L171.799 106.823C172.135 106.623 172.413 106.787 172.413 107.18V112.45C172.401 112.664 172.339 112.872 172.232 113.058C172.125 113.243 171.977 113.402 171.799 113.521L126.625 139.6C126.282 139.8 126.004 139.643 126.004 139.243V133.973C126.016 133.758 126.078 133.549 126.186 133.363C126.294 133.177 126.445 133.019 126.625 132.902Z" fill="white"/>
<path d="M144.642 135.894L162.494 125.604C163.208 125.204 163.737 125.525 163.737 126.318V131.831C163.713 132.26 163.589 132.679 163.373 133.051C163.157 133.423 162.856 133.739 162.494 133.973L144.642 144.27C143.928 144.663 143.406 144.342 143.406 143.556V138.036C143.431 137.608 143.556 137.191 143.77 136.819C143.985 136.447 144.283 136.13 144.642 135.894Z" fill="#27DEBF"/>
<path opacity="0.1" d="M144.642 135.894L162.494 125.604C163.208 125.204 163.737 125.525 163.737 126.318V131.831C163.713 132.26 163.589 132.679 163.373 133.051C163.157 133.423 162.856 133.739 162.494 133.973L144.642 144.27C143.928 144.663 143.406 144.342 143.406 143.556V138.036C143.431 137.608 143.556 137.191 143.77 136.819C143.985 136.447 144.283 136.13 144.642 135.894Z" fill="black"/>
<path d="M186.917 112.628C186.917 112.628 178.147 100.532 177.633 99.0605C177.226 97.975 177.633 96.3612 177.762 95.6114C177.89 94.8616 178.005 93.1906 178.133 92.7549C178.347 91.9409 177.298 92.1051 176.705 92.8478C176.112 93.5904 175.912 95.0758 175.605 95.3186C175.298 95.5614 172.963 92.1551 171.742 90.5841C170.521 89.013 169.757 88.0561 169.007 88.6417C168.471 89.063 168.871 89.9771 169.757 91.3196C170.274 92.0425 170.751 92.7935 171.185 93.569C171.321 93.8618 170.592 93.8832 170.199 94.4902C169.892 94.9615 170.199 95.7256 169.771 96.0898C169.507 96.2905 169.327 96.5811 169.263 96.9064C169.2 97.2317 169.259 97.5688 169.428 97.8536C170.223 99.1019 171.248 100.188 172.449 101.053C173.763 101.96 174.291 102.281 175.07 103.516C175.848 104.752 182.832 117.37 183.303 118.127C183.775 118.884 184.681 120.426 186.06 120.469C187.438 120.512 198.721 110.8 199.299 110.315C201.156 108.765 201.749 108.537 202.063 109.936C202.171 110.431 202.252 110.932 202.306 111.436C202.527 113.207 203.734 119.534 203.734 119.534C203.734 119.534 209.447 122.297 214.138 120.962C218.83 119.627 220.415 117.634 220.415 117.634L218.066 113.807C218.701 112.229 221.636 105.83 222.586 101.353L207.876 98.9748C207.576 98.9105 207.09 98.7891 206.447 98.6249C205.64 98.4107 203.591 97.7037 202.041 99.0605C196.985 103.467 186.931 112.628 186.931 112.628" fill="#FFA8A7"/>
<path d="M216.081 186.852L213.446 190.516C214.643 191.075 215.952 191.356 217.273 191.337C219.637 191.423 220.287 190.623 220.372 190.466C220.772 189.609 220.151 188.066 219.98 186.738L216.081 186.852Z" fill="#37474F"/>
<path d="M213.596 188.759C213.596 188.759 210.396 188.552 208.19 188.281C205.983 188.009 204.234 189.08 204.748 189.987C205.262 190.894 206.483 191.651 208.383 192.287C210.004 192.836 211.953 193.229 213.638 193.715C215.324 194.2 216.495 194.836 217.473 194.493C218.566 194.115 219.037 193.679 218.944 192.879C218.706 191.742 218.41 190.617 218.059 189.509L213.596 188.759Z" fill="#37474F"/>
<path d="M220.372 183.175C220.372 183.175 219.972 186.502 219.944 187.217C219.915 187.931 216.695 188.159 216.081 186.852L215.981 182.782L220.372 183.175Z" fill="#F28F8F"/>
<path d="M217.13 185.217L218.28 190.273C218.28 190.273 218.387 190.887 215.759 191.28C213.131 191.673 209.004 189.902 208.297 189.545C207.59 189.187 207.511 188.466 210.096 188.609C212.681 188.752 213.596 188.759 213.596 188.759L212.753 186.524L217.13 185.217Z" fill="#FFA8A7"/>
<path d="M222.543 101.31L224.364 100.803C224.364 100.803 228.17 112.85 228.592 114.014C229.013 115.178 229.491 116.406 228.67 117.841C227.692 119.548 222.543 126.411 222.543 126.411L219.273 123.211L222.986 116.413L219.701 109.772L222.543 101.31Z" fill="#F28F8F"/>
<path d="M203.841 85.6639C203.414 84.8625 203.197 83.9659 203.211 83.058C203.225 82.1501 203.468 81.2605 203.919 80.4724C205.733 77.1089 209.775 75.4736 214.588 76.0949C216.816 76.3877 219.444 78.2372 220.879 81.0008C222.465 84.0643 222.615 90.2342 223.022 92.5693L203.841 85.6639Z" fill="#37474F"/>
<path d="M203.712 86.985C203.712 86.985 202.57 89.163 202.77 89.363C203.066 89.5359 203.39 89.6567 203.727 89.72L203.712 86.985Z" fill="#FFA8A7"/>
<path d="M207.183 80.1011C205.94 80.908 203.798 82.3933 203.705 87.285C203.605 92.2837 204.319 93.9333 205.062 94.5117C205.562 94.9044 208.497 94.7045 209.754 94.4117C211.01 94.1189 214.631 92.3265 215.938 89.6058C217.473 86.4066 217.159 81.7507 214.881 80.3224C213.721 79.6368 212.407 79.2569 211.06 79.2181C209.714 79.1794 208.38 79.4832 207.183 80.1011Z" fill="#FFA8A7"/>
<path d="M220.372 117.606C222.572 121.033 224.657 124.033 225.114 127.903C226.057 136.037 222.972 145.334 222.308 151.354C223.556 153.067 224.276 155.107 224.378 157.224C224.378 159.716 220.372 183.175 220.372 183.175C220.372 183.175 217.459 184.06 215.981 182.782L213.231 139.629L214.66 134.373L220.372 117.606Z" fill="#27DEBF"/>
<path opacity="0.2" d="M220.372 117.606C222.572 121.033 224.657 124.033 225.114 127.903C226.057 136.037 222.972 145.334 222.308 151.354C223.556 153.067 224.276 155.107 224.378 157.224C224.378 159.716 220.372 183.175 220.372 183.175C220.372 183.175 217.459 184.06 215.981 182.782L213.231 139.629L214.66 134.373L220.372 117.606Z" fill="black"/>
<path d="M213.231 139.629L214.66 134.373C217.394 133.653 220.032 132.605 222.515 131.252C222.515 131.252 221.029 133.959 216.759 135.444L214.552 142.192L214.367 157.653L213.231 139.629Z" fill="#27DEBF"/>
<path opacity="0.3" d="M213.231 139.629L214.66 134.373C217.394 133.653 220.032 132.605 222.515 131.252C222.515 131.252 221.029 133.959 216.759 135.444L214.552 142.192L214.367 157.653L213.231 139.629Z" fill="black"/>
<path d="M220.372 117.606C221.551 119.534 224.364 122.819 223.764 125.982C223.05 129.81 220.979 132.502 214.681 134.373L208.768 155.796C208.768 155.796 211.846 158.652 212.789 161.416C213.731 164.18 217.13 185.231 217.13 185.231C217.13 185.231 216.073 186.952 212.753 186.538C212.753 186.538 201.177 160.116 200.363 158.395C199.375 156.652 199.029 154.618 199.385 152.647C199.749 149.876 203.669 119.548 203.669 119.548L220.372 117.606Z" fill="#27DEBF"/>
<path opacity="0.2" d="M220.372 117.606C221.551 119.534 224.364 122.819 223.764 125.982C223.05 129.81 220.979 132.502 214.681 134.373L208.768 155.796C208.768 155.796 211.846 158.652 212.789 161.416C213.731 164.18 217.13 185.231 217.13 185.231C217.13 185.231 216.073 186.952 212.753 186.538C212.753 186.538 201.177 160.116 200.363 158.395C199.375 156.652 199.029 154.618 199.385 152.647C199.749 149.876 203.669 119.548 203.669 119.548L220.372 117.606Z" fill="black"/>
<path d="M222.543 101.31L207.833 98.9319C207.533 98.8677 207.047 98.7463 206.404 98.582C206.404 98.582 205.776 107.808 201.998 109.922C202.091 110.365 202.17 110.857 202.241 111.422C202.463 113.193 203.669 119.52 203.669 119.52C203.669 119.52 209.382 122.283 214.074 120.948C218.766 119.612 220.351 117.62 220.351 117.62L218.002 113.792C218.658 112.2 221.615 105.802 222.543 101.31Z" fill="#27DEBF"/>
<path opacity="0.7" d="M222.543 101.31L207.833 98.9319C207.533 98.8677 207.047 98.7463 206.404 98.582C206.404 98.582 205.776 107.808 201.998 109.922C202.091 110.365 202.17 110.857 202.241 111.422C202.463 113.193 203.669 119.52 203.669 119.52C203.669 119.52 209.382 122.283 214.074 120.948C218.766 119.612 220.351 117.62 220.351 117.62L218.002 113.792C218.658 112.2 221.615 105.802 222.543 101.31Z" fill="white"/>
<path d="M218.666 112.271C216.712 113.444 214.665 114.455 212.546 115.292C214.469 115.254 216.353 114.733 218.023 113.778L218.666 112.271Z" fill="#27DEBF"/>
<path d="M206.819 80.3438C206.819 80.3438 206.105 84.9855 207.79 87.7134C207.79 87.7134 208.418 85.8639 209.982 86.2138C211.546 86.5637 211.632 88.6274 210.532 89.7843C210.251 90.1094 209.885 90.3488 209.474 90.4751C209.064 90.6014 208.626 90.6095 208.211 90.4984C208.211 90.4984 207.968 93.8547 207.833 96.6682C207.697 99.4818 206.954 105.616 210.118 108.094C213.281 110.572 221.222 111.443 224.943 106.244C227.014 103.352 224.264 98.2393 222.986 92.505C221.808 87.2349 221.144 79.4226 215.552 78.1658C209.961 76.909 206.819 80.3438 206.819 80.3438Z" fill="#37474F"/>
<path d="M227.335 16.9243L226.157 17.6384C226.256 17.2192 226.311 16.7908 226.321 16.3601C226.321 13.9679 224.643 13.0039 222.572 14.2178C221.942 14.598 221.379 15.0807 220.908 15.646C220.908 12.4326 218.651 11.1258 215.866 12.7325C214.399 13.6896 213.177 14.9791 212.302 16.4965C211.426 18.014 210.92 19.7165 210.825 21.466C210.825 21.6302 210.825 21.7873 210.825 21.9444C210.107 21.8542 209.381 22.0212 208.775 22.4157C207.684 23.1268 206.776 24.0852 206.125 25.213C205.473 26.3409 205.097 27.6064 205.026 28.9069C205.026 29.2093 205.057 29.5108 205.119 29.8067L204.491 30.1709C202.784 31.1564 201.399 33.0773 201.399 34.4555C201.399 35.8337 202.784 36.1622 204.491 35.1696L227.342 21.9944C229.049 21.009 230.434 19.088 230.434 17.7098C230.434 16.3316 229.042 15.9317 227.335 16.9243Z" fill="#EBEBEB"/>
</g>
<defs>
<clipPath id="clip0_38_113">
<rect width="252" height="234.047" fill="white"/>
</clipPath>
</defs>
</svg>
