<svg width="317" height="320" viewBox="0 0 317 320" fill="none" xmlns="http://www.w3.org/2000/svg">
<g clip-path="url(#clip0_9_1265)">
<g opacity="0.71">
<path d="M34.3842 199.278C16.2195 176.455 -17.3805 150.651 13.3646 80.549C44.1097 10.447 168.423 -5.56868 190.619 60.5333C212.816 126.635 221.6 89.4588 271.984 109.161C330.761 132.22 333.161 254.463 274.714 275.953C251.514 284.471 231.31 302.463 208.314 308.533C131.796 328.706 59.2941 320.973 39.9058 279.529C18.0862 232.957 59.3411 230.651 34.3842 199.278Z" fill="#92E3A9"/>
<path d="M41.4667 22.9999C43.0331 13.3083 36.4462 4.18197 26.7545 2.61565C17.0629 1.04933 7.93658 7.63617 6.37026 17.3278C4.80393 27.0194 11.3908 36.1458 21.0824 37.7121C30.774 39.2784 39.9004 32.6916 41.4667 22.9999Z" fill="#92E3A9"/>
</g>
<path d="M96.4235 123.874H34.4156V185.882H96.4235V123.874Z" fill="#F0B66F"/>
<path d="M69.8353 123.874H60.9883V137.647H69.8353V123.874Z" fill="white"/>
<path d="M69.8353 172.659H60.9883V185.898H69.8353V172.659Z" fill="white"/>
<path d="M98.3529 75.2H49.6941V123.859H98.3529V75.2Z" fill="#F0B66F"/>
<path d="M77.5059 75.2H70.5569V86.0079H77.5059V75.2Z" fill="white"/>
<path d="M77.5059 113.474H70.5569V123.859H77.5059V113.474Z" fill="white"/>
<path d="M34.3844 124.847H101.145C101.384 124.817 101.603 124.701 101.762 124.52C101.921 124.34 102.009 124.107 102.009 123.867C102.009 123.626 101.921 123.394 101.762 123.213C101.603 123.033 101.384 122.916 101.145 122.886H34.3844C34.1457 122.916 33.9263 123.033 33.7672 123.213C33.6081 123.394 33.5204 123.626 33.5204 123.867C33.5204 124.107 33.6081 124.34 33.7672 124.52C33.9263 124.701 34.1457 124.817 34.3844 124.847Z" fill="#D26637"/>
<path d="M235.341 135.326C234.731 135.262 234.119 135.231 233.506 135.231C224.831 135.231 217.82 141.333 217.82 148.863C217.82 156.392 224.863 162.494 233.506 162.494C234.133 162.494 234.745 162.494 235.341 162.4V135.326Z" fill="#AA1D21"/>
<path d="M229.914 135.608V162.118C231.095 162.364 232.299 162.49 233.506 162.494C234.133 162.494 234.745 162.494 235.341 162.4V135.326C234.732 135.262 234.119 135.231 233.506 135.231C232.299 135.235 231.095 135.361 229.914 135.608Z" fill="white"/>
<path d="M234.369 135.326V162.4C234.399 162.639 234.515 162.858 234.696 163.017C234.876 163.176 235.108 163.264 235.349 163.264C235.59 163.264 235.822 163.176 236.002 163.017C236.183 162.858 236.299 162.639 236.329 162.4V135.326C236.299 135.087 236.183 134.867 236.002 134.708C235.822 134.549 235.59 134.462 235.349 134.462C235.108 134.462 234.876 134.549 234.696 134.708C234.515 134.867 234.399 135.087 234.369 135.326Z" fill="#210E2C"/>
<path d="M300.141 262.988C303.466 242.657 289.681 223.479 269.35 220.154C249.019 216.828 229.841 230.614 226.515 250.945C223.19 271.276 236.975 290.453 257.306 293.779C277.637 297.105 296.815 283.319 300.141 262.988Z" fill="#3E1D5D" stroke="#210E2C" stroke-width="2" stroke-miterlimit="10"/>
<path d="M263.263 280.063C276.05 280.063 286.416 269.697 286.416 256.91C286.416 244.123 276.05 233.757 263.263 233.757C250.476 233.757 240.11 244.123 240.11 256.91C240.11 269.697 250.476 280.063 263.263 280.063Z" fill="#F0DFEE"/>
<path d="M263.263 267.749C269.249 267.749 274.102 262.896 274.102 256.91C274.102 250.923 269.249 246.071 263.263 246.071C257.276 246.071 252.424 250.923 252.424 256.91C252.424 262.896 257.276 267.749 263.263 267.749Z" fill="#3E1D5D"/>
<path d="M261.318 243.074C260.704 243.158 260.08 243.058 259.523 242.787C258.966 242.516 258.502 242.086 258.189 241.552C257.876 241.018 257.728 240.403 257.764 239.785C257.799 239.166 258.017 238.573 258.39 238.078C258.762 237.583 259.273 237.21 259.857 237.005C260.441 236.8 261.073 236.773 261.673 236.926C262.273 237.08 262.814 237.407 263.228 237.868C263.642 238.328 263.911 238.901 264 239.514C264.06 239.924 264.038 240.342 263.935 240.743C263.832 241.145 263.651 241.522 263.401 241.853C263.152 242.184 262.839 242.463 262.482 242.672C262.124 242.882 261.728 243.019 261.318 243.074Z" fill="#AE93C3"/>
<path d="M253.082 247.357C252.656 247.806 252.107 248.12 251.503 248.258C250.9 248.396 250.269 248.352 249.69 248.132C249.111 247.912 248.61 247.525 248.251 247.021C247.891 246.517 247.689 245.918 247.669 245.299C247.649 244.68 247.813 244.069 248.14 243.543C248.467 243.017 248.943 242.6 249.506 242.343C250.07 242.087 250.697 242.003 251.308 242.103C251.92 242.202 252.488 242.48 252.941 242.902C253.245 243.184 253.489 243.524 253.661 243.901C253.832 244.278 253.927 244.686 253.94 245.1C253.954 245.514 253.884 245.927 253.737 246.314C253.59 246.702 253.367 247.056 253.082 247.357Z" fill="#AE93C3"/>
<path d="M249.286 255.749C249.228 256.366 248.989 256.951 248.599 257.432C248.208 257.913 247.684 258.268 247.093 258.451C246.501 258.635 245.868 258.639 245.274 258.464C244.68 258.289 244.151 257.941 243.754 257.466C243.357 256.99 243.11 256.408 243.044 255.792C242.977 255.176 243.094 254.555 243.381 254.005C243.667 253.456 244.109 253.004 244.652 252.705C245.195 252.407 245.814 252.276 246.431 252.329C246.844 252.365 247.245 252.482 247.613 252.673C247.98 252.864 248.306 253.127 248.571 253.445C248.836 253.762 249.036 254.13 249.159 254.525C249.282 254.921 249.325 255.337 249.286 255.749Z" fill="#AE93C3"/>
<path d="M251.686 264.816C252.035 265.329 252.223 265.934 252.228 266.554C252.232 267.175 252.053 267.782 251.712 268.301C251.372 268.819 250.885 269.225 250.314 269.467C249.743 269.709 249.112 269.776 248.503 269.66C247.894 269.543 247.332 269.249 246.89 268.814C246.448 268.379 246.145 267.823 246.019 267.215C245.893 266.608 245.95 265.977 246.182 265.402C246.415 264.827 246.813 264.333 247.325 263.984C247.666 263.752 248.049 263.59 248.453 263.506C248.857 263.422 249.273 263.419 249.678 263.496C250.083 263.573 250.469 263.73 250.813 263.956C251.158 264.182 251.455 264.475 251.686 264.816Z" fill="#AE93C3"/>
<path d="M258.965 270.274C259.553 270.468 260.071 270.832 260.453 271.319C260.835 271.807 261.064 272.396 261.112 273.014C261.159 273.631 261.023 274.249 260.72 274.789C260.417 275.33 259.961 275.768 259.409 276.049C258.857 276.331 258.234 276.442 257.619 276.37C257.004 276.298 256.424 276.046 255.952 275.645C255.48 275.244 255.137 274.712 254.967 274.116C254.797 273.52 254.807 272.888 254.996 272.298C255.122 271.904 255.325 271.538 255.594 271.222C255.862 270.907 256.19 270.648 256.559 270.46C256.928 270.271 257.33 270.158 257.743 270.126C258.156 270.095 258.571 270.145 258.965 270.274Z" fill="#AE93C3"/>
<path d="M268.392 270.008C268.97 269.783 269.602 269.735 270.208 269.87C270.813 270.005 271.366 270.316 271.794 270.764C272.223 271.212 272.51 271.778 272.617 272.389C272.725 273 272.649 273.629 272.399 274.196C272.149 274.764 271.736 275.245 271.213 275.579C270.69 275.912 270.08 276.083 269.459 276.069C268.839 276.056 268.237 275.859 267.729 275.503C267.22 275.147 266.829 274.649 266.604 274.071C266.454 273.687 266.382 273.277 266.391 272.865C266.4 272.452 266.49 272.046 266.656 271.669C266.822 271.291 267.061 270.95 267.359 270.666C267.657 270.381 268.008 270.157 268.392 270.008Z" fill="#AE93C3"/>
<path d="M275.357 264.094C275.673 263.56 276.141 263.132 276.701 262.864C277.26 262.596 277.887 262.5 278.501 262.588C279.115 262.677 279.69 262.945 280.151 263.359C280.613 263.774 280.942 264.316 281.095 264.917C281.249 265.519 281.221 266.152 281.014 266.737C280.808 267.322 280.433 267.833 279.936 268.205C279.439 268.577 278.843 268.793 278.224 268.827C277.604 268.86 276.989 268.709 276.455 268.392C275.739 267.968 275.222 267.276 275.016 266.47C274.81 265.664 274.933 264.81 275.357 264.094Z" fill="#AE93C3"/>
<path d="M277.176 254.98C277.09 254.366 277.187 253.74 277.456 253.18C277.725 252.621 278.154 252.154 278.688 251.839C279.222 251.524 279.838 251.374 280.458 251.408C281.077 251.443 281.673 251.66 282.169 252.033C282.665 252.406 283.039 252.918 283.244 253.504C283.449 254.09 283.476 254.723 283.321 255.324C283.166 255.925 282.836 256.466 282.374 256.88C281.911 257.293 281.336 257.56 280.722 257.647C279.898 257.763 279.062 257.548 278.397 257.048C277.732 256.548 277.293 255.804 277.176 254.98Z" fill="#AE93C3"/>
<path d="M271.592 244.769C271.509 244.155 271.609 243.531 271.88 242.974C272.151 242.417 272.58 241.953 273.115 241.64C273.649 241.327 274.264 241.179 274.882 241.214C275.5 241.25 276.094 241.468 276.589 241.841C277.083 242.213 277.456 242.724 277.661 243.308C277.866 243.892 277.894 244.524 277.74 245.124C277.587 245.724 277.259 246.265 276.799 246.679C276.338 247.093 275.766 247.362 275.153 247.451C274.743 247.511 274.325 247.489 273.923 247.386C273.522 247.283 273.144 247.102 272.813 246.852C272.482 246.603 272.204 246.29 271.994 245.933C271.785 245.575 271.648 245.179 271.592 244.769Z" fill="#AE93C3"/>
<path d="M305.443 241.521C304.793 230.938 300.13 221.002 292.406 213.738C284.682 206.474 274.478 202.429 263.875 202.429C253.271 202.429 243.067 206.474 235.343 213.738C227.619 221.002 222.956 230.938 222.306 241.521H305.443Z" fill="#AA1D21"/>
<path d="M67.3255 237.474C67.3255 237.474 66.7451 209.239 88.9569 193.443C111.169 177.647 155.671 187.686 155.671 187.686V228.972C155.671 228.972 153.788 243.89 174.494 245.208C180.188 245.553 186.541 245.835 191.467 245.914C204.518 246.102 213.914 245.914 213.914 245.914C213.914 245.914 220.11 247.482 221.757 226.4C223.404 205.318 201.365 155.341 188.816 139.796C188.816 139.796 193.6 130.165 212.831 144.816C226.4 155.169 241.82 183.09 247.655 209.882C249.583 220.357 250.58 230.981 250.635 241.631C250.635 257.663 237.098 261.474 237.098 261.474H69.6158L67.3255 237.474Z" fill="#DE5254"/>
<path d="M143.796 262.977C147.121 242.646 133.336 223.468 113.005 220.142C92.6737 216.816 73.4961 230.602 70.1704 250.933C66.8447 271.264 80.6303 290.442 100.961 293.768C121.292 297.093 140.47 283.308 143.796 262.977Z" fill="#3E1D5D" stroke="#210E2C" stroke-width="2" stroke-miterlimit="10"/>
<path d="M106.918 280.063C119.705 280.063 130.071 269.697 130.071 256.91C130.071 244.123 119.705 233.757 106.918 233.757C94.1306 233.757 83.7646 244.123 83.7646 256.91C83.7646 269.697 94.1306 280.063 106.918 280.063Z" fill="#F0DFEE"/>
<path d="M106.918 267.749C112.904 267.749 117.757 262.896 117.757 256.91C117.757 250.923 112.904 246.071 106.918 246.071C100.931 246.071 96.0784 250.923 96.0784 256.91C96.0784 262.896 100.931 267.749 106.918 267.749Z" fill="#3E1D5D"/>
<path d="M104.973 243.075C104.561 243.132 104.141 243.108 103.739 243.004C103.336 242.899 102.958 242.717 102.626 242.466C102.293 242.216 102.014 241.902 101.803 241.544C101.592 241.185 101.454 240.789 101.396 240.377C101.338 239.965 101.362 239.545 101.467 239.143C101.571 238.74 101.754 238.362 102.004 238.03C102.255 237.697 102.568 237.418 102.927 237.207C103.286 236.996 103.682 236.858 104.094 236.8C104.926 236.684 105.77 236.902 106.441 237.408C107.112 237.914 107.554 238.666 107.671 239.498C107.787 240.33 107.568 241.174 107.062 241.845C106.556 242.516 105.805 242.958 104.973 243.075Z" fill="#AE93C3"/>
<path d="M96.7373 247.357C96.313 247.808 95.7647 248.123 95.1615 248.263C94.5583 248.403 93.9272 248.362 93.3476 248.144C92.7681 247.925 92.266 247.541 91.9047 247.038C91.5434 246.535 91.3389 245.936 91.3171 245.318C91.2953 244.699 91.4572 244.087 91.7822 243.56C92.1073 243.033 92.5811 242.614 93.1439 242.356C93.7067 242.098 94.3333 242.012 94.9449 242.109C95.5564 242.206 96.1255 242.482 96.5805 242.902C96.8851 243.183 97.1309 243.522 97.3037 243.899C97.4766 244.275 97.5731 244.683 97.5877 245.097C97.6023 245.511 97.5346 245.924 97.3887 246.312C97.2427 246.7 97.0214 247.055 96.7373 247.357Z" fill="#AE93C3"/>
<path d="M92.9882 255.749C92.9302 256.366 92.691 256.951 92.3006 257.432C91.9102 257.913 91.3863 258.268 90.7947 258.451C90.2031 258.635 89.5704 258.639 88.9764 258.464C88.3823 258.289 87.8534 257.941 87.4565 257.466C87.0595 256.99 86.8122 256.408 86.7457 255.792C86.6792 255.176 86.7964 254.555 87.0827 254.005C87.369 253.456 87.8114 253.004 88.3543 252.705C88.8972 252.407 89.5162 252.276 90.1333 252.329C90.5459 252.365 90.9474 252.482 91.3147 252.673C91.6819 252.864 92.0076 253.127 92.273 253.445C92.5384 253.762 92.7383 254.13 92.8611 254.525C92.9838 254.921 93.027 255.337 92.9882 255.749Z" fill="#AE93C3"/>
<path d="M95.3412 264.816C95.6897 265.329 95.8782 265.934 95.8828 266.554C95.8875 267.175 95.7081 267.782 95.3675 268.301C95.0268 268.819 94.5401 269.225 93.9689 269.467C93.3976 269.709 92.7675 269.776 92.1581 269.66C91.5488 269.543 90.9875 269.249 90.5454 268.814C90.1032 268.379 89.7999 267.823 89.6738 267.215C89.5478 266.608 89.6047 265.977 89.8373 265.402C90.0698 264.827 90.4677 264.333 90.9805 263.984C91.3213 263.752 91.7045 263.59 92.1082 263.506C92.5119 263.422 92.9282 263.419 93.3332 263.496C93.7382 263.573 94.124 263.73 94.4686 263.956C94.8131 264.182 95.1097 264.475 95.3412 264.816Z" fill="#AE93C3"/>
<path d="M102.62 270.274C103.208 270.468 103.726 270.832 104.108 271.319C104.49 271.807 104.719 272.396 104.767 273.014C104.814 273.631 104.678 274.249 104.375 274.789C104.072 275.33 103.616 275.768 103.064 276.049C102.512 276.331 101.889 276.442 101.274 276.37C100.659 276.298 100.079 276.046 99.6069 275.645C99.135 275.244 98.7923 274.712 98.6222 274.116C98.4521 273.52 98.4621 272.888 98.6509 272.298C98.7772 271.904 98.9803 271.538 99.2486 271.222C99.5168 270.907 99.8449 270.648 100.214 270.46C100.583 270.271 100.985 270.158 101.398 270.126C101.811 270.095 102.226 270.145 102.62 270.274Z" fill="#AE93C3"/>
<path d="M112.047 270.008C112.625 269.783 113.257 269.735 113.863 269.87C114.469 270.005 115.021 270.316 115.449 270.764C115.878 271.212 116.164 271.778 116.272 272.389C116.38 273 116.304 273.629 116.054 274.196C115.804 274.764 115.391 275.245 114.868 275.579C114.345 275.912 113.735 276.083 113.114 276.069C112.494 276.056 111.892 275.859 111.384 275.503C110.875 275.147 110.484 274.649 110.259 274.071C110.109 273.687 110.037 273.277 110.046 272.865C110.055 272.452 110.145 272.046 110.311 271.669C110.477 271.291 110.716 270.95 111.014 270.666C111.312 270.381 111.663 270.157 112.047 270.008Z" fill="#AE93C3"/>
<path d="M119.09 264.094C119.407 263.56 119.874 263.132 120.434 262.864C120.994 262.596 121.62 262.5 122.234 262.588C122.849 262.677 123.423 262.945 123.885 263.359C124.346 263.774 124.675 264.316 124.829 264.917C124.982 265.519 124.954 266.152 124.748 266.737C124.541 267.322 124.166 267.833 123.669 268.205C123.173 268.577 122.577 268.793 121.957 268.827C121.338 268.86 120.722 268.709 120.188 268.392C119.473 267.968 118.955 267.276 118.749 266.47C118.543 265.664 118.666 264.81 119.09 264.094Z" fill="#AE93C3"/>
<path d="M120.816 254.98C120.729 254.367 120.827 253.741 121.095 253.183C121.364 252.624 121.792 252.158 122.326 251.842C122.859 251.527 123.474 251.377 124.093 251.41C124.712 251.444 125.307 251.66 125.803 252.032C126.299 252.403 126.674 252.913 126.88 253.498C127.087 254.082 127.116 254.715 126.963 255.315C126.81 255.916 126.483 256.458 126.023 256.873C125.563 257.288 124.99 257.557 124.377 257.647C123.967 257.707 123.551 257.685 123.15 257.584C122.749 257.482 122.373 257.302 122.042 257.054C121.711 256.806 121.432 256.495 121.222 256.14C121.011 255.784 120.873 255.39 120.816 254.98Z" fill="#AE93C3"/>
<path d="M113.224 244.769C113.14 244.155 113.24 243.531 113.511 242.974C113.782 242.417 114.212 241.953 114.746 241.64C115.28 241.327 115.895 241.179 116.513 241.214C117.132 241.25 117.725 241.468 118.22 241.841C118.715 242.213 119.088 242.724 119.293 243.308C119.498 243.892 119.525 244.524 119.372 245.124C119.218 245.724 118.891 246.265 118.43 246.679C117.97 247.093 117.397 247.362 116.784 247.451C116.374 247.511 115.956 247.489 115.555 247.386C115.153 247.283 114.776 247.102 114.445 246.852C114.114 246.603 113.835 246.29 113.626 245.933C113.416 245.575 113.279 245.179 113.224 244.769Z" fill="#AE93C3"/>
<path d="M155.639 261.741C154.212 234.431 132.941 212.753 106.918 212.753C80.8942 212.753 59.6079 234.431 58.1804 261.741H155.639Z" fill="#AA1D21"/>
<path d="M177.224 207.278V225.977H190.525L190.62 205.945L177.224 207.278Z" fill="#F2B39F"/>
<path d="M212.675 245.914L173.427 245.631L174.494 221.553L193.6 222.965L194.118 232.376L212.675 245.914Z" fill="white"/>
<path d="M173.992 232.408C175.533 232.247 177.089 232.507 178.494 233.161C179.548 233.64 180.496 234.322 181.286 235.168C182.075 236.014 182.69 237.007 183.095 238.092C183.5 239.176 183.688 240.329 183.646 241.485C183.605 242.642 183.336 243.779 182.855 244.831C182.714 245.129 182.557 245.412 182.4 245.694H173.396L173.992 232.408Z" fill="#3E1D5D"/>
<path d="M202.274 235.671L199.733 241.224" stroke="#210E2C" stroke-miterlimit="10"/>
<path d="M198.541 233.6L196 239.153" stroke="#210E2C" stroke-miterlimit="10"/>
<path d="M195.859 232.314C195.859 232.314 206.369 228.126 204.674 225.145C201.929 220.345 195.859 232.314 195.859 232.314Z" stroke="#210E2C" stroke-miterlimit="10"/>
<path d="M198.275 222.212L196 232.251" stroke="#210E2C" stroke-miterlimit="10"/>
<path d="M194.541 199.608C194.126 191.32 191.732 183.252 187.561 176.078C179.561 162.447 157.945 155.012 134.227 151.765C110.51 148.518 95.0118 151.765 95.0118 151.765C95.0118 151.765 93.6313 154.792 93.2705 163.655C93.5148 168.273 94.0386 172.872 94.8391 177.427C94.8391 177.427 147.498 169.584 162.055 181.286C165.38 183.919 168.115 187.22 170.085 190.975C172.055 194.731 173.215 198.858 173.49 203.09V216.157H194.667C194.667 216.157 194.886 203.576 194.541 199.608Z" fill="#263238"/>
<path d="M173.412 208.769H194.698C194.937 208.738 195.156 208.622 195.315 208.442C195.474 208.261 195.562 208.029 195.562 207.788C195.562 207.548 195.474 207.315 195.315 207.135C195.156 206.954 194.937 206.838 194.698 206.808H173.412C173.173 206.838 172.954 206.954 172.795 207.135C172.636 207.315 172.548 207.548 172.548 207.788C172.548 208.029 172.636 208.261 172.795 208.442C172.954 208.622 173.173 208.738 173.412 208.769Z" fill="#210E2C"/>
<path d="M131.169 69.5216L134.023 68.753L131.2 65.2235L131.169 69.5216Z" fill="#DE5254"/>
<path d="M124.518 55.3725L119.137 55.4509C117.296 55.6031 115.589 56.4762 114.387 57.8803C113.186 59.2844 112.587 61.1059 112.722 62.949L112.831 71.2941C112.816 71.5291 112.816 71.7649 112.831 71.9999C112.792 72.2494 112.792 72.5035 112.831 72.7529V77.8352V78.1176L112.91 83.2C112.914 83.6401 113.005 84.075 113.178 84.4799C113.35 84.8847 113.601 85.2514 113.916 85.559C114.231 85.8665 114.603 86.1089 115.012 86.272C115.421 86.4352 115.858 86.516 116.298 86.5097H118.431C118.872 86.5057 119.306 86.4147 119.711 86.242C120.116 86.0693 120.483 85.8183 120.79 85.5035C121.098 85.1887 121.34 84.8161 121.503 84.4074C121.667 83.9986 121.747 83.5616 121.741 83.1216V78.6196H124.878C128.455 78.6196 131.341 75.1999 131.294 71.1215L131.169 62.7765C131.219 61.8533 131.088 60.9292 130.781 60.0571C130.474 59.185 129.997 58.382 129.38 57.6942C128.762 57.0064 128.014 56.4473 127.18 56.0489C126.346 55.6505 125.441 55.4207 124.518 55.3725Z" fill="#F2B39F"/>
<path d="M110.306 52.9255C110.306 52.9255 115.812 36 128.737 40.2196C140.518 44.047 133.82 57.2549 130.306 59.2627C125.955 61.1368 121.41 62.5205 116.753 63.3882C116.753 63.3882 114.353 70.0863 112.957 70.9176L112.816 77.3019C112.816 77.3019 99.2314 72.4078 98.949 64.1098C98.6667 55.8117 106.055 51.0431 110.306 52.9255Z" fill="#210E2C"/>
<path d="M124.941 66.8078C124.907 67.0406 124.942 67.2783 125.043 67.491C125.143 67.7038 125.304 67.882 125.506 68.0032C125.708 68.1245 125.941 68.1833 126.176 68.1724C126.411 68.1615 126.637 68.0813 126.827 67.9418C127.017 67.8024 127.161 67.6101 127.241 67.3889C127.321 67.1678 127.335 66.9278 127.279 66.6992C127.223 66.4706 127.101 66.2636 126.928 66.1043C126.755 65.945 126.538 65.8404 126.306 65.8039C126.15 65.7794 125.991 65.786 125.838 65.8233C125.685 65.8606 125.541 65.9279 125.414 66.0213C125.287 66.1146 125.18 66.2322 125.099 66.3672C125.018 66.5022 124.964 66.6519 124.941 66.8078Z" fill="#210E2C"/>
<path d="M130.337 75.0118C129.739 75.1743 129.103 75.1294 128.533 74.8845C127.964 74.6395 127.494 74.2089 127.2 73.6628" stroke="black" stroke-width="0.5" stroke-miterlimit="10"/>
<path d="M123.278 64.8314L125.114 63.1373" stroke="#210E2C" stroke-width="0.75" stroke-miterlimit="10"/>
<path d="M100.565 55.404C100.23 55.7561 99.8018 56.0044 99.3301 56.1191C98.8583 56.2339 98.3634 56.2102 97.9048 56.051C97.4461 55.8917 97.0431 55.6036 96.7439 55.2212C96.4448 54.8388 96.2622 54.3783 96.2181 53.8948C96.174 53.4113 96.2701 52.9253 96.4951 52.495C96.72 52.0648 97.0642 51.7085 97.4865 51.4688C97.9087 51.2292 98.3911 51.1163 98.8759 51.1437C99.3606 51.1712 99.8271 51.3378 100.22 51.6236C100.764 52.0812 101.105 52.7349 101.17 53.4428C101.234 54.1506 101.017 54.8554 100.565 55.404Z" fill="#DE5254"/>
<path d="M108.329 48.6902C108.329 48.6902 114.039 34.1647 121.224 36.0628C128.408 37.9608 117.129 53.0196 117.129 53.0196L108.329 48.6902Z" fill="#EA9C1A"/>
<path d="M107.78 74.5098L120.126 48.9412C120.126 48.9412 109.427 43.4353 102.196 49.4431C94.9647 55.451 94.9177 71.1529 107.78 74.5098Z" fill="#AA1D21"/>
<path d="M106.008 70.4941C106.011 71.3462 106.267 72.178 106.744 72.8841C107.221 73.5901 107.897 74.1384 108.687 74.4594C109.476 74.7804 110.343 74.8595 111.177 74.6867C112.012 74.514 112.776 74.0971 113.373 73.4891C113.97 72.8811 114.372 72.1094 114.53 71.2721C114.687 70.4347 114.592 69.5694 114.257 68.7861C113.921 68.0029 113.361 67.3369 112.646 66.873C111.931 66.409 111.095 66.168 110.243 66.1804C109.681 66.1845 109.126 66.2994 108.609 66.5186C108.092 66.7378 107.623 67.057 107.23 67.4578C106.836 67.8586 106.526 68.3331 106.316 68.8541C106.106 69.3752 106.001 69.9325 106.008 70.4941Z" fill="#F2B39F"/>
<path d="M113.208 70.9647C113.227 70.5766 113.174 70.1883 113.051 69.8196C112.953 69.4456 112.777 69.0967 112.533 68.7964C112.29 68.4961 111.985 68.2513 111.639 68.0784C111.065 67.8372 110.436 67.7559 109.82 67.8431C109.734 67.8292 109.647 67.8339 109.564 67.8571C109.48 67.8802 109.403 67.9211 109.337 67.9771C109.271 68.033 109.219 68.1027 109.182 68.1811C109.146 68.2595 109.127 68.3449 109.127 68.4314C109.127 68.5178 109.146 68.6032 109.182 68.6816C109.219 68.7601 109.271 68.8297 109.337 68.8857C109.403 68.9416 109.48 68.9826 109.564 69.0057C109.647 69.0289 109.734 69.0336 109.82 69.0196C110.07 68.9883 110.323 68.9883 110.573 69.0196H110.761L111.059 69.1137H111.184L111.404 69.2549C111.294 69.1608 111.514 69.3333 111.404 69.2549L111.498 69.3334C111.558 69.3831 111.611 69.4411 111.655 69.5059C111.561 69.3647 111.655 69.5059 111.655 69.5059V69.6C111.706 69.662 111.748 69.7306 111.78 69.8039C111.78 69.7098 111.78 69.9451 111.78 69.8039C111.78 69.898 111.78 69.9294 111.78 69.9921C111.827 70.1135 111.858 70.2399 111.875 70.3687C111.875 70.3687 111.875 70.4628 111.875 70.5255C111.882 70.6404 111.882 70.7557 111.875 70.8706C111.897 71.0101 111.969 71.137 112.077 71.2285C112.185 71.32 112.321 71.3703 112.463 71.3703C112.604 71.3703 112.741 71.32 112.849 71.2285C112.956 71.137 113.028 71.0101 113.051 70.8706L113.208 70.9647Z" fill="#210E2C"/>
<path d="M114.29 89.5843H120.69C121.107 89.6143 121.526 89.558 121.92 89.4191C122.314 89.2801 122.676 89.0614 122.982 88.7767C123.288 88.4919 123.532 88.1471 123.699 87.7638C123.866 87.3805 123.952 86.967 123.952 86.549C123.952 86.131 123.866 85.7174 123.699 85.3341C123.532 84.9509 123.288 84.6061 122.982 84.3213C122.676 84.0365 122.314 83.8178 121.92 83.6789C121.526 83.5399 121.107 83.4837 120.69 83.5137H114.306C113.889 83.4837 113.47 83.5399 113.076 83.6789C112.682 83.8178 112.32 84.0365 112.014 84.3213C111.708 84.6061 111.464 84.9509 111.297 85.3341C111.13 85.7174 111.044 86.131 111.044 86.549C111.044 86.967 111.13 87.3805 111.297 87.7638C111.464 88.1471 111.708 88.4919 112.014 88.7767C112.32 89.0614 112.682 89.2801 113.076 89.4191C113.47 89.558 113.889 89.6143 114.306 89.5843H114.29Z" fill="#210E2C"/>
<path d="M114.588 68.3921L120.722 71.6862" stroke="#210E2C" stroke-width="0.75" stroke-miterlimit="10"/>
<path d="M121.333 73.7098L112.847 76.8784" stroke="#210E2C" stroke-width="0.75" stroke-miterlimit="10"/>
<path d="M134.024 67.3726L119.702 71.1373L121.977 78.9804C121.977 78.9804 127.718 81.0039 131.247 76.8471C132.373 75.5661 133.205 74.0542 133.685 72.4174C134.165 70.7806 134.28 69.0587 134.024 67.3726Z" fill="white"/>
<path d="M92.1726 153.208C92.0314 150.573 91.9373 147.874 91.9373 145.145C91.9373 112.612 102.918 86.2588 116.627 86.2588C130.337 86.2588 141.318 112.612 141.318 145.145C141.318 147.561 141.318 149.945 141.145 152.298L92.1726 153.208Z" fill="#F2B411"/>
<path d="M141.302 147.341C141.302 149.004 141.302 150.667 141.145 152.298L92.1726 153.208C92.0628 151.278 92 149.318 91.9686 147.341H141.302Z" fill="#210E2C"/>
<path d="M167.718 130.541C163.341 131.2 158.133 132.11 154.306 132.533L158.62 145.443C162.494 144.22 167.827 142.604 172.157 141.349L167.718 130.541Z" fill="#F2B39F"/>
<path d="M191.247 131.827C187.733 129.678 183.325 129.192 173.867 129.741C171.906 129.851 168.91 130.29 165.678 130.792L169.678 142.039C173.898 140.784 177.663 139.718 179.09 139.42C183.482 138.51 187.906 137.663 188.612 140.267C189.318 142.871 188.784 143.404 187.435 143.404C186.855 143.404 184.737 141.663 184.518 144.298C184.518 145.051 184.973 146.039 187.012 146.604C188.121 146.948 189.311 146.927 190.407 146.543C191.503 146.159 192.447 145.432 193.098 144.471C194.886 142.102 195.796 134.745 191.247 131.827Z" fill="white"/>
<path d="M187.216 144.377C189.2 144.377 190.808 142.768 190.808 140.784C190.808 138.8 189.2 137.192 187.216 137.192C185.232 137.192 183.624 138.8 183.624 140.784C183.624 142.768 185.232 144.377 187.216 144.377Z" fill="#210E2C"/>
<path d="M158.651 131.686C158.651 131.686 136.267 136.094 128.957 106.337C121.647 76.5804 102.902 88.2196 100.502 107.561C98.7608 121.678 101.302 130.212 115.78 141.647C130.259 153.082 157.898 147.326 163.451 143.906L158.651 131.686Z" fill="#00933F"/>
<path d="M157.223 146.227L152.518 131.718C154.597 132.029 156.712 132.029 158.792 131.718L163.592 143.937C161.574 144.965 159.434 145.734 157.223 146.227Z" fill="#210E2C"/>
<path d="M149.929 173.412H85.0039C79.9965 173.412 75.9373 177.471 75.9373 182.478V187.059C75.9373 192.066 79.9965 196.126 85.0039 196.126H149.929C154.937 196.126 158.996 192.066 158.996 187.059V182.478C158.996 177.471 154.937 173.412 149.929 173.412Z" fill="#3E1D5D"/>
<path d="M19.9686 297.176H297.914C301.647 297.176 305.427 297.349 309.176 297.176H309.663C309.901 297.146 310.121 297.03 310.28 296.849C310.439 296.669 310.527 296.437 310.527 296.196C310.527 295.955 310.439 295.723 310.28 295.543C310.121 295.362 309.901 295.246 309.663 295.216H31.7176C27.9843 295.216 24.1882 295.059 20.4549 295.216H19.9686C19.7299 295.246 19.5105 295.362 19.3514 295.543C19.1924 295.723 19.1046 295.955 19.1046 296.196C19.1046 296.437 19.1924 296.669 19.3514 296.849C19.5105 297.03 19.7299 297.146 19.9686 297.176Z" fill="#210E2C"/>
<path d="M122.008 311.122H253.992C255.773 311.231 257.56 311.231 259.341 311.122H259.592C259.831 311.091 260.05 310.975 260.209 310.795C260.368 310.614 260.456 310.382 260.456 310.141C260.456 309.901 260.368 309.668 260.209 309.488C260.05 309.307 259.831 309.191 259.592 309.161H127.608C125.826 309.051 124.04 309.051 122.259 309.161H122.008C121.769 309.191 121.55 309.307 121.391 309.488C121.232 309.668 121.144 309.901 121.144 310.141C121.144 310.382 121.232 310.614 121.391 310.795C121.55 310.975 121.769 311.091 122.008 311.122Z" fill="#210E2C"/>
<path d="M0.941119 204.863H48.4078C48.6465 204.832 48.8659 204.716 49.0249 204.536C49.184 204.355 49.2718 204.123 49.2718 203.882C49.2718 203.642 49.184 203.409 49.0249 203.229C48.8659 203.048 48.6465 202.932 48.4078 202.902H0.941119C0.702453 202.932 0.483029 203.048 0.32397 203.229C0.164911 203.409 0.0771484 203.642 0.0771484 203.882C0.0771484 204.123 0.164911 204.355 0.32397 204.536C0.483029 204.716 0.702453 204.832 0.941119 204.863Z" fill="#210E2C"/>
<path d="M27.5921 218.337H58.1804C58.419 218.307 58.6384 218.191 58.7975 218.01C58.9566 217.83 59.0443 217.597 59.0443 217.357C59.0443 217.116 58.9566 216.884 58.7975 216.703C58.6384 216.523 58.419 216.407 58.1804 216.376H27.5921C27.3535 216.407 27.134 216.523 26.975 216.703C26.8159 216.884 26.7281 217.116 26.7281 217.357C26.7281 217.597 26.8159 217.83 26.975 218.01C27.134 218.191 27.3535 218.307 27.5921 218.337Z" fill="#210E2C"/>
</g>
<defs>
<clipPath id="clip0_9_1265">
<rect width="316.863" height="320" fill="white"/>
</clipPath>
</defs>
</svg>
