<svg width="342" height="321" viewBox="0 0 342 321" fill="none" xmlns="http://www.w3.org/2000/svg">
<g clip-path="url(#clip0_9_1041)">
<path d="M297.685 56.0812C273.268 31.0378 239.555 14.325 205.555 6.55421C200.644 5.4248 195.702 4.4427 190.727 3.60792C115.317 -9.12737 69.1934 57.849 55.832 86.7741C42.4706 115.699 7.31413 178.381 7.80763 215.6C8.30114 252.819 86.7827 317.983 167.798 320.053C248.813 322.123 312.497 277.73 326.249 208.441C332.046 179.221 338.034 148.278 331.788 118.623C326.639 94.0661 314.324 73.1328 297.685 56.0812Z" fill="#92E3A9"/>
<path opacity="0.7" d="M297.685 56.0812C273.268 31.0378 239.555 14.325 205.555 6.55421C200.644 5.4248 195.702 4.4427 190.727 3.60792C115.317 -9.12737 69.1934 57.849 55.832 86.7741C42.4706 115.699 7.31413 178.381 7.80763 215.6C8.30114 252.819 86.7827 317.983 167.798 320.053C248.813 322.123 312.497 277.73 326.249 208.441C332.046 179.221 338.034 148.278 331.788 118.623C326.639 94.0661 314.324 73.1328 297.685 56.0812Z" fill="white"/>
<path d="M6.79114 294.7H341.032" stroke="#263238" stroke-miterlimit="10"/>
<g opacity="0.15">
<path d="M31.5768 206.607C35.7163 206.739 44.2679 203.115 44.2752 203.108C44.2826 203.101 40.1725 198.195 39.8558 197.952C36.3866 194.741 27.7908 190.586 23.1798 193.186C19.8579 195.057 19.3055 199.351 21.4195 202.335C23.5334 205.318 28.0486 206.489 31.5768 206.607Z" fill="black"/>
<path d="M44.5109 230.42C48.3779 229.492 55.1912 224.196 55.7362 223.791C58.7573 227.69 62.0375 231.381 65.5547 234.839C67.5877 236.865 69.7016 238.846 71.845 240.813C70.7328 240.076 69.7311 239.399 69.5837 239.34C65.3853 237.167 56.0014 235.429 52.2449 239.148C49.5343 241.837 50.1309 246.116 52.9815 248.444C55.832 250.771 60.465 250.735 63.8974 249.917C67.3299 249.099 73.2813 244.687 74.8281 243.501C75.6531 244.238 76.4781 244.975 77.3104 245.711C81.31 249.269 85.3169 252.797 89.1397 256.377C90.4876 257.636 91.7693 258.925 93.0509 260.214C92.0639 259.551 91.2242 258.999 91.0916 258.925C86.8932 256.752 77.5093 255.014 73.7528 258.734C71.0422 261.422 71.6388 265.702 74.4893 268.029C77.3399 270.357 81.9803 270.32 85.4127 269.502C88.7346 268.714 94.2147 264.7 96.0634 263.293C97.3377 264.656 98.6194 266.011 99.7979 267.388C100.579 268.346 101.396 269.208 102.133 270.217L104.343 273.119C105.683 275.019 107.075 276.971 108.335 278.864C109.226 280.168 110.044 281.427 110.876 282.694C109.55 281.42 106.898 279.011 106.655 278.813C102.84 276.021 93.8243 272.883 89.5448 275.992C86.4586 278.201 86.3997 282.562 88.8083 285.287C91.2168 288.012 95.8646 288.683 99.378 288.395C103.252 288.071 110.515 284.064 111.414 283.556C112.784 285.663 114.095 287.718 115.303 289.677C116.385 291.43 117.395 293.109 118.345 294.708L121.424 293.485C120.341 291.747 119.214 289.92 117.947 288.005C116.57 285.862 115.052 283.586 113.476 281.295C115.409 279.458 117.234 277.51 118.941 275.461C122.543 277.185 130.255 277.803 131.257 277.877C131.257 280.389 131.198 282.827 131.117 285.125C131.065 286.709 131.006 288.226 130.94 289.692L134.203 288.395C134.203 287.349 134.24 286.289 134.255 285.191C134.255 282.643 134.255 279.925 134.218 277.126C135.22 276.956 143.395 275.476 146.607 273.274C149.553 271.277 152.669 267.926 152.846 264.192C153.022 260.457 150.238 257.224 146.43 257.43C141.149 257.725 136.118 265.849 134.94 270.416C134.866 270.688 134.431 273.701 134.203 275.572C134.203 274.43 134.166 273.325 134.129 272.147C134.063 269.826 133.931 267.506 133.798 265.017C133.695 263.816 133.584 262.601 133.474 261.371C133.363 260.141 133.157 258.881 132.995 257.621C132.568 254.675 131.993 251.773 131.353 248.834C133.385 248.775 140.611 248.451 143.808 246.912C147.005 245.372 150.606 242.544 151.343 238.883C152.08 235.222 149.826 231.591 146.032 231.223C140.766 230.715 134.586 237.985 132.708 242.323C132.59 242.595 131.588 245.858 131.073 247.656C130.675 245.895 130.285 244.128 129.82 242.36C128.487 237.204 126.97 232.107 125.489 226.973C125.033 225.404 124.598 223.828 124.156 222.259C124.893 222.259 133.474 222.053 137.046 220.329C140.228 218.797 143.852 215.961 144.589 212.293C145.325 208.625 143.071 205.008 139.278 204.64C134.012 204.124 127.832 211.402 125.953 215.733C125.806 216.064 124.377 220.764 124.075 221.971C123.103 218.51 122.167 215.055 121.379 211.608C120.296 206.959 119.517 202.245 119.044 197.495C119.383 197.495 128.355 197.326 132.015 195.558C135.197 194.026 138.821 191.19 139.558 187.529C140.294 183.869 138.041 180.245 134.24 179.869C128.973 179.361 122.794 186.631 120.915 190.969C120.768 191.308 119.236 196.361 119.022 197.296C119.022 197.024 118.941 196.744 118.919 196.464C118.575 191.688 118.659 186.891 119.17 182.13C119.413 179.493 119.796 176.974 120.223 174.566C121.902 174.706 129.555 175.266 133.025 174.043C136.354 172.872 140.272 170.448 141.407 166.891C142.541 163.333 140.67 159.481 136.987 158.693C131.831 157.603 124.863 164.158 122.521 168.268C122.396 168.489 121.35 170.905 120.613 172.688C120.827 171.59 121.018 170.478 121.239 169.417C122.064 165.506 123.059 161.97 123.965 158.84C124.495 157.072 125.011 155.481 125.512 153.993C127.22 153.257 134.1 150.311 136.56 147.659C139.02 145.007 141.333 141.126 140.7 137.443C140.066 133.76 136.656 131.197 132.98 132.22C127.883 133.642 124.746 142.65 124.554 147.372C124.554 147.784 125.018 154.192 125.106 154.155L125.21 154.119C124.701 155.533 124.178 157.065 123.633 158.744C122.654 161.853 121.578 165.373 120.687 169.292C119.658 173.498 118.873 177.76 118.337 182.057C117.72 186.867 117.531 191.723 117.77 196.567V196.744C117.218 195.271 115.56 191.286 115.391 190.991C113.093 186.867 106.221 180.237 101.028 181.269C97.2935 182.005 95.43 185.916 96.498 189.415C97.5661 192.914 101.477 195.448 104.799 196.656C108.534 198.026 117.144 197.392 117.829 197.304C118.183 202.215 118.864 207.097 119.869 211.917C120.444 214.731 121.114 217.552 121.821 220.373C121.306 219.128 120.842 218.031 120.753 217.884C118.455 213.751 111.59 207.122 106.398 208.153C102.656 208.89 100.8 212.801 101.868 216.3C102.936 219.799 106.847 222.332 110.161 223.548C113.476 224.763 120.879 224.358 122.823 224.218C123.103 225.301 123.375 226.376 123.663 227.459C125.033 232.615 126.432 237.771 127.64 242.875C128.075 244.673 128.428 246.455 128.789 248.238C128.333 247.14 127.935 246.212 127.861 246.079C125.563 241.947 118.698 235.326 113.505 236.357C109.764 237.093 107.9 240.997 108.976 244.459C110.051 247.921 113.955 250.499 117.269 251.707C120.584 252.915 127.272 252.554 129.577 252.407C129.894 254.241 130.218 256.089 130.439 257.879C130.564 259.109 130.771 260.281 130.822 261.525C130.874 262.77 130.992 263.971 131.073 265.171C131.139 267.499 131.227 269.893 131.235 272.161C131.235 273.745 131.235 275.248 131.235 276.758C130.83 274.968 129.96 271.476 129.857 271.196C128.264 267.354 125.713 263.984 122.447 261.407C122.289 260.972 122.089 260.553 121.851 260.155C119.98 257.01 115.833 255.773 112.776 258.049C108.534 261.268 108.843 270.843 110.36 275.262C110.449 275.528 111.745 278.282 112.57 280.013C111.914 279.07 111.296 278.15 110.611 277.192C109.278 275.292 107.893 273.436 106.405 271.425L104.129 268.567C103.392 267.595 102.479 266.667 101.654 265.702C99.6947 263.492 97.5955 261.378 95.4374 259.279C97.102 258.108 102.95 253.858 104.762 250.808C106.574 247.759 108.025 243.443 106.626 239.951C105.226 236.46 101.337 234.707 97.9638 236.497C93.2866 238.972 92.1449 248.451 92.9698 253.099C93.0214 253.394 93.9937 256.664 94.5609 258.454C93.2498 257.202 91.9534 255.942 90.5834 254.719C86.6501 251.191 82.5548 247.744 78.4889 244.282C77.2367 243.222 76.0067 242.154 74.806 241.085C75.4027 240.673 82.459 235.775 84.492 232.357C86.2966 229.33 87.7549 224.991 86.3481 221.5C84.9412 218.009 81.0669 216.263 77.6934 218.046C73.0162 220.528 71.8745 230 72.6995 234.655C72.7658 235.001 74.1726 239.708 74.5777 240.887C71.8598 238.537 69.1713 236.173 66.6154 233.727C63.1429 230.451 59.89 226.95 56.8779 223.246C57.1578 223.054 64.5456 217.972 66.6301 214.481C68.4347 211.446 69.8931 207.078 68.4863 203.624C67.0794 200.169 63.2051 198.379 59.8316 200.169C55.1543 202.644 54.0127 212.116 54.8376 216.771C54.9039 217.14 56.4139 222.2 56.7527 223.098C56.5759 222.885 56.3771 222.679 56.2003 222.465C53.2814 218.667 50.7056 214.617 48.5031 210.363C47.2583 208.036 46.1977 205.737 45.218 203.476C46.6912 202.666 53.3866 198.909 55.6037 195.978C57.7323 193.157 59.6622 188.981 58.6457 185.386C57.6292 181.792 53.9685 179.597 50.4182 181.003C45.4979 182.948 43.325 192.244 43.6344 196.958C43.6344 197.215 44.1132 199.801 44.4741 201.686C44.0469 200.655 43.5828 199.609 43.1925 198.615C41.7193 194.895 40.5997 191.396 39.6348 188.303C39.0971 186.535 38.6478 184.922 38.2427 183.412C39.2739 181.865 43.3619 175.582 43.9732 172.017C44.5846 168.452 44.3489 163.915 41.7635 161.219C39.1782 158.523 34.9355 158.273 32.4385 161.116C28.9693 165.116 31.3263 174.374 33.7717 178.411C33.9853 178.757 37.9186 183.847 37.9702 183.766L38.0365 183.67C38.3974 185.143 38.773 186.697 39.2739 188.399C40.1725 191.529 41.2184 195.065 42.6179 198.828C44.0822 202.906 45.7816 206.895 47.7076 210.776C49.8463 215.128 52.3679 219.281 55.2427 223.187C55.2427 223.238 55.3164 223.275 55.3532 223.327C54.0937 222.413 50.4918 219.997 50.1972 219.843C45.9988 217.67 36.6149 215.924 32.851 219.651C30.1478 222.332 30.7444 226.619 33.5876 228.947C36.4307 231.274 41.0711 231.238 44.5109 230.42Z" fill="black"/>
<path d="M119.626 173.741C119.722 173.741 118.89 167.384 118.816 166.987C117.689 162.398 112.813 154.192 107.532 153.817C103.731 153.544 100.903 156.815 101.013 160.446C101.124 164.077 104.225 167.583 107.105 169.623C110.478 172.054 119.619 173.741 119.626 173.741Z" fill="black"/>
</g>
<g opacity="0.15">
<path d="M327.656 181.401C323.833 183 314.545 182.646 314.537 182.646C314.53 182.646 316.629 176.599 316.813 176.23C318.913 172.003 325.468 165.057 330.698 165.852C334.469 166.419 336.509 170.272 335.603 173.778C334.697 177.284 330.911 180.039 327.656 181.401Z" fill="black"/>
<path d="M221.288 187.036C224.971 186.948 231.931 183.699 233.441 182.977C234.708 185.091 235.953 187.294 237.124 189.666C239.288 193.936 241.07 198.39 242.449 202.975C242.53 203.241 242.575 203.528 242.656 203.793C242.118 202.997 238.884 198.814 238.627 198.549C235.334 195.168 226.967 190.564 222.231 192.914C218.813 194.615 218.032 198.865 220.021 201.966C222.01 205.067 226.407 206.489 229.92 206.791C233.979 207.137 242.442 204.095 242.737 203.984C243.979 208.584 244.924 213.258 245.565 217.979C246.059 221.485 246.412 225.05 246.736 228.63C246 227.606 243.017 223.725 242.766 223.474C239.466 220.086 231.106 215.49 226.37 217.839C222.952 219.533 222.172 223.791 224.124 226.884C226.075 229.978 230.51 231.414 234.023 231.709C237.986 232.048 246.081 229.175 246.766 228.932C246.913 230.56 247.06 232.18 247.193 233.816C247.635 239.141 248.047 244.474 248.614 249.733C248.813 251.552 249.071 253.342 249.351 255.132C248.231 253.659 246.132 250.933 245.926 250.712C242.634 247.324 234.266 242.721 229.53 245.078C226.112 246.772 225.332 251.029 227.283 254.123C229.235 257.216 233.669 258.645 237.183 258.947C240.696 259.249 247.583 256.981 249.506 256.318C249.948 259.264 250.456 262.21 251.097 265.112C251.399 266.342 251.627 267.624 251.981 268.795C252.334 269.966 252.651 271.16 252.975 272.316C253.712 274.695 254.448 276.905 255.185 279.1C255.56 280.212 255.921 281.258 256.326 282.333C255.42 280.639 253.94 277.98 253.778 277.752C251.03 273.907 243.466 268.096 238.42 269.701C234.782 270.858 233.367 274.946 234.826 278.304C236.284 281.663 240.461 283.74 243.886 284.573C247.672 285.486 255.84 283.961 256.835 283.77C257.785 286.392 258.735 288.926 259.67 291.312C260.068 292.343 260.466 293.323 260.856 294.295L264.37 294.347C263.788 292.999 263.184 291.599 262.58 290.141C261.689 288.012 260.783 285.722 259.877 283.416C260.775 282.989 267.773 279.667 270.527 276.787C272.848 278.102 275.247 279.275 277.709 280.3C277.053 283.018 276.435 285.67 275.904 288.16C275.426 290.369 274.998 292.513 274.615 294.516H275.904H277.93C278.247 292.69 278.593 290.775 278.983 288.764C279.41 286.502 279.904 284.116 280.456 281.663C281.48 281.818 289.693 282.982 293.427 281.899C296.816 280.919 300.867 278.732 302.2 275.27C303.533 271.808 301.92 267.83 298.237 266.836C293.103 265.451 285.738 271.58 283.189 275.55C283.027 275.807 281.414 279.019 280.626 280.706C280.95 279.232 281.267 277.759 281.635 276.22C282.143 274.01 282.755 271.683 283.329 269.436C283.675 268.272 284.014 267.109 284.368 265.93C284.721 264.751 285.148 263.625 285.546 262.453C286.157 260.752 286.872 259.028 287.579 257.297C289.789 257.946 296.352 259.75 299.74 259.308C303.239 258.859 307.577 257.305 309.426 254.056C311.274 250.808 310.273 246.691 306.789 245.122C301.95 242.978 293.796 247.936 290.651 251.464C290.547 251.582 289.958 252.392 289.273 253.364C290.01 251.707 290.746 250.042 291.564 248.385C293.862 243.678 296.352 238.957 298.826 234.213C299.342 233.226 299.843 232.232 300.359 231.267C302.222 231.827 309.3 233.845 312.88 233.381C316.46 232.917 320.717 231.378 322.566 228.129C324.415 224.881 323.413 220.764 319.929 219.187C315.09 217.044 306.936 222.008 303.791 225.536C303.673 225.662 302.973 226.634 302.207 227.746C303.511 225.153 304.785 222.546 305.964 219.924C308.008 215.412 309.751 210.768 311.179 206.025C311.834 206.231 320.084 208.757 324.032 208.234C327.531 207.778 331.862 206.224 333.718 202.975C335.574 199.727 334.565 195.61 331.074 194.041C326.242 191.897 318.088 196.854 314.935 200.383C314.714 200.633 312.21 204.176 311.356 205.472C311.356 205.413 311.4 205.362 311.414 205.303C312.709 200.629 313.587 195.85 314.037 191.021C314.46 186.711 314.63 182.38 314.545 178.05C314.545 174.036 314.236 170.36 313.963 167.112C313.808 165.351 313.624 163.746 313.44 162.25L313.536 162.317C313.609 162.368 315.48 156.218 315.561 155.82C316.408 151.172 315.318 141.685 310.656 139.188C307.297 137.384 303.371 139.188 301.979 142.591C300.587 145.994 301.979 150.421 303.776 153.463C305.573 156.505 311.665 160.991 313.182 162.074C313.344 163.628 313.499 165.292 313.624 167.141C313.823 170.389 314.022 174.058 313.963 178.057C313.963 179.118 313.897 180.267 313.86 181.379C313.536 179.494 313.042 176.916 312.969 176.665C311.576 172.15 306.244 164.239 300.948 164.143C297.14 164.092 294.503 167.524 294.82 171.163C295.136 174.802 298.436 178.109 301.449 180.002C304.572 181.961 312.166 183.088 313.823 183.316C313.713 185.776 313.536 188.303 313.204 190.925C312.658 195.684 311.689 200.384 310.31 204.971C310.229 205.237 310.111 205.502 310.022 205.76C310.022 204.802 309.632 199.536 309.558 199.167C308.674 194.527 304.24 186.078 298.989 185.423C295.203 184.951 292.205 188.075 292.124 191.728C292.043 195.381 294.959 199.027 297.722 201.215C300.911 203.741 309.625 205.863 309.956 205.944C308.455 210.475 306.661 214.903 304.586 219.202C303.062 222.399 301.39 225.566 299.688 228.726C299.688 227.481 299.29 222.583 299.224 222.229C298.34 217.589 293.906 209.14 288.654 208.485C284.868 208.014 281.871 211.137 281.79 214.79C281.709 218.443 284.618 222.089 287.388 224.284C290.503 226.744 298.841 228.822 299.548 228.991C298.768 230.464 298.002 231.864 297.213 233.3C294.635 237.977 292.057 242.662 289.612 247.361C288.772 248.989 288.006 250.624 287.233 252.259C287.122 250.388 286.865 246.985 286.806 246.691C285.922 242.05 281.488 233.602 276.236 232.946C272.45 232.475 269.459 235.598 269.371 239.251C269.283 242.905 272.207 246.551 274.969 248.738C277.731 250.926 284.729 252.834 286.703 253.342C285.428 256.067 284.228 258.807 283.174 261.555C282.747 262.748 282.232 263.941 281.885 265.112L280.766 268.596C280.095 270.998 279.455 273.229 278.888 275.483C278.593 276.625 278.335 277.693 278.063 278.813C278.239 276.898 278.468 273.863 278.453 273.583C278.291 268.862 275.183 259.839 270.093 258.395C266.41 257.356 262.985 259.986 262.352 263.588C262.271 264.045 262.234 264.508 262.241 264.972C260.102 268.54 258.917 272.599 258.801 276.758C258.801 277.06 259.236 280.632 259.486 282.451C258.949 281.037 258.403 279.638 257.858 278.157C257.063 276.028 256.29 273.738 255.531 271.528C255.177 270.379 254.794 269.215 254.463 268.037C254.131 266.858 253.844 265.687 253.527 264.494C253.093 262.733 252.739 260.899 252.386 259.073C254.595 258.388 261.055 256.281 263.641 254.042C266.226 251.803 269.062 248.046 268.797 244.319C268.531 240.592 265.423 237.69 261.659 238.316C256.444 239.2 252.386 247.832 251.701 252.51C251.701 252.664 251.642 253.666 251.605 254.859C251.303 253.062 251.008 251.272 250.765 249.438C250.088 244.245 249.565 238.935 249.005 233.609C248.894 232.504 248.762 231.4 248.644 230.287C250.507 229.728 257.527 227.503 260.23 225.131C262.933 222.76 265.659 219.136 265.386 215.409C265.114 211.682 262.02 208.78 258.256 209.406C253.034 210.29 248.975 218.922 248.298 223.599C248.298 223.769 248.224 224.962 248.187 226.303C247.841 223.423 247.451 220.55 247.009 217.707C246.243 212.855 245.155 208.059 243.753 203.351C244.416 203.16 252.695 200.721 255.7 198.114C258.374 195.801 261.129 192.118 260.856 188.391C260.584 184.664 257.49 181.762 253.726 182.388C248.511 183.272 244.445 191.905 243.768 196.582C243.716 196.913 243.584 201.252 243.584 202.799C243.572 202.744 243.558 202.69 243.54 202.637C242.047 198.023 240.146 193.552 237.861 189.275C235.836 185.446 233.588 181.74 231.128 178.175C228.919 174.838 226.628 171.929 224.61 169.336C223.505 167.959 222.466 166.721 221.487 165.572H221.604C221.7 165.572 219.866 159.415 219.704 159.039C217.848 154.686 211.705 147.379 206.446 147.865C202.653 148.219 200.391 151.909 201.091 155.496C201.791 159.083 205.415 162.015 208.589 163.598C211.764 165.182 219.321 165.528 221.177 165.587C222.172 166.802 223.218 168.106 224.344 169.572C226.304 172.172 228.491 175.118 230.65 178.492C231.231 179.383 231.813 180.37 232.403 181.32C231.084 179.928 229.25 178.042 229.051 177.88C225.405 174.883 216.588 171.251 212.11 174.087C208.899 176.142 208.597 180.458 210.873 183.324C213.149 186.189 217.76 187.124 221.288 187.036Z" fill="black"/>
<path d="M233.669 181.99C233.588 182.042 232.078 175.789 232.027 175.361C231.445 170.669 233.088 161.263 237.919 159.039C241.374 157.433 245.182 159.481 246.375 162.943C247.569 166.405 245.919 170.75 243.952 173.689C241.617 177.159 233.677 181.99 233.669 181.99Z" fill="black"/>
</g>
<g opacity="0.3">
<path d="M84.0177 107.284L101.108 88.409L68.4258 58.8186L51.3358 77.6941L84.0177 107.284Z" stroke="black" stroke-width="0.998248" stroke-miterlimit="10"/>
<path d="M82.2233 101.071C82.7726 100.468 83.5388 100.107 84.3536 100.069C85.1683 100.03 85.9651 100.316 86.5691 100.865C86.6631 100.952 86.7517 101.046 86.8343 101.145L96.6896 90.3096C96.5864 90.2374 96.488 90.1587 96.3949 90.0739C95.7919 89.5246 95.4315 88.7585 95.3928 87.9437C95.3541 87.1289 95.6404 86.3321 96.1887 85.7281L96.3213 85.5882L72.9867 64.3529L72.8615 64.5002C72.3122 65.1032 71.5461 65.4636 70.7313 65.5023C69.9165 65.541 69.1197 65.2547 68.5158 64.7064C68.4217 64.6186 68.3332 64.5252 68.2506 64.4265L58.3953 75.2615C58.4984 75.3337 58.5968 75.4124 58.6899 75.4972C59.293 76.0465 59.6534 76.8126 59.692 77.6274C59.7307 78.4422 59.4445 79.239 58.8962 79.8429C58.8109 79.9369 58.7198 80.0254 58.6236 80.1081L81.9876 101.373C82.0598 101.267 82.1385 101.166 82.2233 101.071ZM73.7454 79.4599C74.1917 78.9698 74.7302 78.5724 75.3301 78.2905C75.93 78.0086 76.5796 77.8476 77.2417 77.8169C77.9039 77.7861 78.5656 77.8861 79.1891 78.1111C79.8126 78.3362 80.3856 78.6819 80.8754 79.1285C81.3653 79.5741 81.7625 80.112 82.0443 80.7113C82.3261 81.3106 82.4871 81.9595 82.5178 82.6211C82.5486 83.2826 82.4487 83.9437 82.2237 84.5666C81.9988 85.1895 81.6532 85.7619 81.2069 86.2511C80.3068 87.2398 79.0511 87.8307 77.7157 87.8943C76.3802 87.9578 75.0741 87.4887 74.0842 86.5899C73.0951 85.6886 72.5039 84.4317 72.4404 83.095C72.3769 81.7583 72.8462 80.451 73.7454 79.4599Z" stroke="black" stroke-miterlimit="10"/>
</g>
<g opacity="0.3">
<path d="M210.221 13.1071L203.714 -11.5563L161.01 -0.289512L167.517 24.3739L210.221 13.1071Z" stroke="black" stroke-miterlimit="10"/>
<path d="M203.478 12.3068C203.375 11.915 203.35 11.5068 203.406 11.1055C203.461 10.7042 203.595 10.3179 203.801 9.96876C204.006 9.6196 204.279 9.31452 204.602 9.07109C204.926 8.82765 205.295 8.65066 205.687 8.55031C205.81 8.51515 205.936 8.49051 206.063 8.47665L202.329 -5.68759C202.211 -5.63931 202.09 -5.59751 201.968 -5.56237C201.575 -5.45932 201.167 -5.43477 200.765 -5.49015C200.363 -5.54553 199.976 -5.67974 199.627 -5.88507C199.277 -6.09039 198.971 -6.3628 198.727 -6.68663C198.483 -7.01046 198.305 -7.37934 198.204 -7.77208C198.188 -7.83519 198.176 -7.89912 198.167 -7.96359L167.651 0.0871191C167.674 0.147384 167.693 0.208856 167.71 0.271262C167.813 0.663512 167.837 1.07226 167.782 1.47402C167.727 1.87579 167.592 2.26265 167.387 2.61239C167.182 2.96214 166.909 3.26787 166.586 3.51203C166.262 3.75619 165.893 3.93396 165.5 4.03514L165.124 4.10143L168.859 18.2657L169.22 18.1405C170.012 17.9364 170.852 18.0543 171.558 18.4684C172.263 18.8825 172.776 19.5591 172.984 20.3502C172.984 20.4754 173.035 20.6006 173.057 20.7258L203.595 12.6235C203.549 12.5206 203.51 12.4148 203.478 12.3068ZM180.725 7.68116C180.556 7.04033 180.515 6.37252 180.604 5.71585C180.694 5.05918 180.911 4.42653 181.245 3.85403C181.579 3.28152 182.022 2.78038 182.55 2.37923C183.077 1.97808 183.679 1.68477 184.319 1.51606C185.613 1.17473 186.988 1.36083 188.144 2.03346C189.301 2.7061 190.142 3.81022 190.484 5.10316C190.653 5.74399 190.694 6.4118 190.605 7.06847C190.516 7.72514 190.298 8.35779 189.964 8.93029C189.631 9.5028 189.187 10.0039 188.66 10.4051C188.132 10.8062 187.531 11.0995 186.89 11.2683C185.6 11.6104 184.227 11.4273 183.071 10.7591C181.916 10.0909 181.072 8.99211 180.725 7.70325V7.68116Z" stroke="black" stroke-miterlimit="10"/>
</g>
<g opacity="0.3">
<path d="M236.062 151.062L251.033 171.714L286.79 145.792L271.819 125.14L236.062 151.062Z" stroke="black" stroke-miterlimit="10"/>
<path d="M242.626 149.353C242.864 149.68 243.034 150.05 243.128 150.443C243.222 150.836 243.238 151.243 243.174 151.642C243.111 152.041 242.969 152.424 242.757 152.768C242.546 153.112 242.268 153.411 241.941 153.647C241.838 153.721 241.728 153.787 241.617 153.853L250.22 165.712C250.311 165.623 250.407 165.539 250.507 165.462C251.17 164.986 251.994 164.791 252.799 164.919C253.605 165.047 254.327 165.489 254.809 166.147L254.912 166.309L280.464 147.784C280.418 147.738 280.376 147.689 280.339 147.637C279.861 146.976 279.665 146.153 279.793 145.348C279.922 144.543 280.364 143.822 281.024 143.343C281.134 143.262 281.237 143.203 281.348 143.136L272.752 131.278C272.66 131.369 272.562 131.452 272.457 131.528C271.797 132.006 270.974 132.202 270.169 132.073C269.364 131.945 268.642 131.502 268.163 130.843L267.957 130.519L242.383 149.058C242.474 149.148 242.555 149.247 242.626 149.353ZM265.511 145.457C266.296 146.54 266.619 147.891 266.409 149.213C266.199 150.534 265.474 151.718 264.392 152.506C263.307 153.29 261.956 153.611 260.634 153.4C259.313 153.189 258.129 152.462 257.343 151.379C256.559 150.295 256.238 148.945 256.449 147.625C256.66 146.304 257.387 145.122 258.47 144.337C259.005 143.948 259.613 143.668 260.257 143.513C260.901 143.359 261.569 143.333 262.223 143.437C262.877 143.541 263.504 143.773 264.068 144.119C264.632 144.466 265.123 144.92 265.511 145.457Z" stroke="black" stroke-miterlimit="10"/>
</g>
<g opacity="0.3">
<path d="M276.371 49.6848L260.215 69.4235L294.391 97.3966L310.547 77.6579L276.371 49.6848Z" stroke="black" stroke-miterlimit="10"/>
<path d="M279.698 55.595C279.181 56.2268 278.434 56.6274 277.622 56.7089C276.81 56.7904 275.999 56.5461 275.367 56.0296C275.268 55.947 275.175 55.8585 275.087 55.7644L265.85 67.1003C265.958 67.1672 266.061 67.241 266.16 67.3212C266.791 67.8381 267.192 68.5846 267.274 69.3968C267.355 70.2089 267.111 71.0202 266.594 71.6523L266.469 71.7922L290.886 91.7827L290.997 91.628C291.514 90.9963 292.26 90.5957 293.072 90.5142C293.885 90.4327 294.696 90.677 295.328 91.1935C295.428 91.2742 295.522 91.3628 295.608 91.4586L304.881 80.1228L304.572 79.9019C303.941 79.3839 303.542 78.6369 303.462 77.8248C303.382 77.0126 303.627 76.202 304.145 75.5708C304.225 75.4724 304.311 75.3789 304.402 75.2909L279.956 55.2857C279.882 55.3888 279.796 55.4919 279.698 55.595ZM289.273 76.7346C288.429 77.7727 287.207 78.4333 285.875 78.5714C284.544 78.7094 283.213 78.3138 282.173 77.4712C281.657 77.0541 281.229 76.5392 280.913 75.9563C280.596 75.3733 280.398 74.7336 280.33 74.0739C280.261 73.4142 280.324 72.7474 280.514 72.112C280.704 71.4765 281.017 70.8847 281.436 70.3706C281.853 69.855 282.368 69.4267 282.951 69.1105C283.534 68.7942 284.174 68.5962 284.833 68.5278C285.493 68.4594 286.16 68.5219 286.795 68.7117C287.431 68.9015 288.023 69.215 288.537 69.6341C289.578 70.4756 290.243 71.696 290.385 73.0274C290.527 74.3587 290.135 75.692 289.295 76.7346H289.273Z" stroke="black" stroke-miterlimit="10"/>
</g>
<g opacity="0.3">
<path d="M0.515423 238.485L15.4867 259.137L51.2439 233.215L36.2726 212.563L0.515423 238.485Z" stroke="black" stroke-miterlimit="10"/>
<path d="M7.07843 236.769C7.31605 237.097 7.48683 237.468 7.581 237.861C7.67518 238.254 7.69088 238.662 7.62726 239.062C7.56365 239.461 7.42196 239.844 7.21025 240.189C6.99854 240.534 6.72097 240.833 6.39343 241.071C6.28979 241.144 6.18154 241.21 6.06934 241.27L14.6798 253.165C14.7729 253.078 14.8713 252.997 14.9745 252.922C15.3019 252.685 15.6728 252.514 16.0662 252.42C16.4596 252.325 16.8677 252.31 17.2672 252.373C17.6667 252.437 18.0497 252.579 18.3944 252.79C18.7391 253.002 19.0387 253.28 19.276 253.607L19.3792 253.769L44.8792 235.208L44.7614 235.06C44.2834 234.399 44.0871 233.574 44.2155 232.768C44.3439 231.962 44.7865 231.239 45.4464 230.759C45.55 230.686 45.6583 230.619 45.7705 230.56L37.1747 218.701C37.0817 218.788 36.9833 218.869 36.8801 218.944C36.5536 219.183 36.1833 219.354 35.7903 219.449C35.3974 219.543 34.9895 219.559 34.5904 219.495C34.1912 219.432 33.8087 219.29 33.4646 219.078C33.1206 218.865 32.8219 218.587 32.5859 218.259C32.5078 218.157 32.4389 218.049 32.3796 217.935L6.80591 236.475C6.90315 236.567 6.99419 236.665 7.07843 236.769ZM29.9637 232.88C30.353 233.416 30.6328 234.023 30.7873 234.667C30.9417 235.311 30.9677 235.979 30.8637 236.633C30.7597 237.287 30.5278 237.914 30.1813 238.478C29.8347 239.043 29.3803 239.533 28.8441 239.922C27.7603 240.706 26.4096 241.029 25.0881 240.819C23.7667 240.609 22.5824 239.884 21.7951 238.802C21.406 238.265 21.1264 237.657 20.9725 237.012C20.8185 236.368 20.7931 235.699 20.8978 235.044C21.0025 234.389 21.2351 233.762 21.5824 233.197C21.9298 232.632 22.385 232.142 22.9221 231.753C23.4582 231.364 24.0658 231.085 24.71 230.931C25.3543 230.777 26.0225 230.752 26.6766 230.856C27.3306 230.961 27.9576 231.194 28.5216 231.541C29.0856 231.888 29.5757 232.343 29.9637 232.88Z" stroke="black" stroke-miterlimit="10"/>
</g>
<path d="M50.492 141.332L71.1159 150.826L88.0939 127.948C88.0939 127.948 87.8582 122.181 88.0939 121.319C88.3296 120.457 90.3772 117.467 90.7382 116.988C91.0991 116.509 91.8209 116.988 91.9461 117.725C92.0714 118.461 91.5852 119.043 91.3422 119.647C91.0991 120.251 90.6056 121.57 90.6056 121.57L91.2096 123.374L97.5809 118.321C97.5809 118.321 99.054 116.399 99.5033 117.246C99.6463 117.495 99.7134 117.78 99.6964 118.067C99.6794 118.353 99.579 118.629 99.4076 118.859L96.5128 122.792L98.4353 122.918L103.127 118.947C103.127 118.947 103.967 118.587 104.085 119.684C104.119 120.02 104.076 120.359 103.958 120.676C103.841 120.993 103.652 121.278 103.407 121.511L100.535 124.192L98.6784 125.333L104.21 123.05C104.21 123.05 104.947 123.787 104.689 124.133L98.6784 128.825L103.098 128.088C103.098 128.088 103.694 128.928 103.333 129.407L91.0696 132.891C91.0696 132.891 73.9591 165.042 73.7234 165.521C73.4877 166 70.9539 167.09 69.0314 166.486C67.109 165.882 42.5149 155.187 42.5149 155.187" fill="#92E3A9"/>
<path d="M50.492 141.332L71.1159 150.826L88.0939 127.948C88.0939 127.948 87.8582 122.181 88.0939 121.319C88.3296 120.457 90.3772 117.467 90.7382 116.988C91.0991 116.509 91.8209 116.988 91.9461 117.725C92.0714 118.461 91.5852 119.043 91.3422 119.647C91.0991 120.251 90.6056 121.57 90.6056 121.57L91.2096 123.374L97.5809 118.321C97.5809 118.321 99.054 116.399 99.5033 117.246C99.6463 117.495 99.7134 117.78 99.6964 118.067C99.6794 118.353 99.579 118.629 99.4076 118.859L96.5128 122.792L98.4353 122.918L103.127 118.947C103.127 118.947 103.967 118.587 104.085 119.684C104.119 120.02 104.076 120.359 103.958 120.676C103.841 120.993 103.652 121.278 103.407 121.511L100.535 124.192L98.6784 125.334L104.21 123.05C104.21 123.05 104.947 123.787 104.689 124.133L98.6784 128.825L103.098 128.088C103.098 128.088 103.694 128.928 103.333 129.407L91.0696 132.891C91.0696 132.891 73.9591 165.042 73.7234 165.521C73.4877 166 70.9539 167.09 69.0314 166.486C67.109 165.882 42.5149 155.187 42.5149 155.187" stroke="#263238" stroke-miterlimit="10"/>
<path d="M82.1128 149.758L91.099 132.861L103.363 129.377C103.724 128.898 103.127 128.059 103.127 128.059L98.7078 128.795L104.718 124.103C104.954 123.743 104.239 123.021 104.239 123.021L98.7078 125.304L100.564 124.162L103.437 121.481C103.682 121.249 103.87 120.963 103.988 120.647C104.105 120.33 104.148 119.991 104.114 119.655C103.996 118.572 103.157 118.918 103.157 118.918L98.4647 122.888L96.5423 122.763L99.4517 118.852C99.6231 118.621 99.7235 118.346 99.7405 118.059C99.7575 117.773 99.6904 117.488 99.5475 117.239C99.0687 116.392 97.625 118.314 97.625 118.314L91.2537 123.367L90.6497 121.562C90.6497 121.562 91.1285 120.244 91.3863 119.64C91.6441 119.036 92.1229 118.439 91.9903 117.717C91.8577 116.996 91.1432 116.517 90.7823 116.981C90.4214 117.445 88.3811 120.465 88.138 121.312C87.8949 122.159 88.138 127.941 88.138 127.941L75.4911 144.889L82.1128 149.758Z" fill="white" stroke="#263238" stroke-miterlimit="10"/>
<path d="M91.2243 123.367C91.8719 123.908 92.4074 124.572 92.8005 125.319C93.1762 126.262 91.4821 128.53 90.7234 128.906" stroke="#263238" stroke-miterlimit="10"/>
<path d="M136.644 129.575C149.585 116.633 149.585 95.6513 136.644 82.71C123.703 69.7687 102.721 69.7687 89.7793 82.71C76.838 95.6513 76.8381 116.633 89.7794 129.575C102.721 142.516 123.703 142.516 136.644 129.575Z" fill="white" stroke="#263238" stroke-miterlimit="10"/>
<path d="M124.854 131.408C138.811 124.974 144.909 108.444 138.475 94.4865C132.041 80.5295 115.51 74.4311 101.553 80.8654C87.5963 87.2997 81.4979 103.83 87.9322 117.787C94.3665 131.744 110.897 137.843 124.854 131.408Z" fill="white" stroke="#263238" stroke-miterlimit="10"/>
<path d="M118.927 131.462L117.984 127.042C114.684 127.612 112.015 127.084 109.977 125.459C107.94 123.833 106.442 121.081 105.484 117.202L111.959 114.631C112.271 115.963 112.721 117.259 113.299 118.498C113.671 119.35 114.267 120.086 115.023 120.627C115.359 120.832 115.733 120.968 116.123 121.026C116.513 121.084 116.91 121.064 117.292 120.966C117.692 120.923 118.074 120.771 118.394 120.527C118.715 120.283 118.963 119.956 119.111 119.581C119.341 118.833 119.369 118.038 119.192 117.275C118.935 115.824 118.241 114.485 117.203 113.438C116.066 112.393 114.798 111.499 113.432 110.779L108.637 108.164C107.581 107.533 106.567 106.834 105.602 106.072C104.664 105.317 103.857 104.411 103.216 103.391C102.497 102.185 101.998 100.861 101.743 99.4799C101.109 96.4943 101.463 93.9875 102.803 91.9595C104.298 89.8233 106.513 88.2984 109.042 87.6653L108.136 83.43L110.427 82.9439L111.325 87.1792C112.813 86.8953 114.347 86.989 115.789 87.4517C116.966 87.8542 118.017 88.5575 118.838 89.492C119.625 90.425 120.268 91.4702 120.746 92.593C121.241 93.7123 121.652 94.867 121.976 96.0475L115.347 98.4929C115.106 97.4519 114.789 96.4301 114.397 95.4361C114.132 94.689 113.681 94.0221 113.086 93.4989C112.795 93.2828 112.455 93.1416 112.097 93.0876C111.738 93.0337 111.372 93.0687 111.031 93.1896C110.633 93.2686 110.261 93.4444 109.948 93.7013C109.634 93.9583 109.389 94.2885 109.233 94.6627C108.91 95.4151 108.833 96.2503 109.012 97.0492C109.222 98.3225 109.855 99.4878 110.81 100.356C111.738 101.118 112.723 101.807 113.756 102.419L118.441 105.012C119.692 105.741 120.884 106.569 122.006 107.486C123.143 108.415 124.136 109.507 124.952 110.727C125.832 112.089 126.442 113.607 126.749 115.198C127.107 116.786 127.092 118.435 126.705 120.015C126.335 121.516 125.572 122.892 124.495 124C123.318 125.174 121.864 126.03 120.267 126.49L121.217 130.968L118.927 131.462Z" fill="#263238"/>
<path d="M87.3941 285.825L96.1373 292.019C96.1373 292.019 101.404 293.102 102.081 293.64C102.759 294.177 102.759 296.476 102.759 296.476C102.759 296.476 97.3526 297.153 92.3513 297.286C87.35 297.418 84.7867 297.286 80.8608 297.153C76.9348 297.021 73.7013 297.286 72.8911 296.343C72.0809 295.4 72.8911 287.143 72.8911 287.143C72.8911 287.143 82.0245 282.201 87.3941 285.825Z" fill="white" stroke="#263238" stroke-miterlimit="10"/>
<path d="M92.3513 297.286C97.3526 297.153 102.759 296.476 102.759 296.476C102.754 295.995 102.714 295.515 102.641 295.039C97.0432 295.496 86.6576 296.21 83.8365 295.533C80.6324 294.796 74.6146 294.435 72.5375 294.347C72.4952 295.031 72.6165 295.715 72.8911 296.343C73.7013 297.286 76.9422 297.021 80.8608 297.153C84.7793 297.286 87.35 297.426 92.3513 297.286Z" fill="white" stroke="#263238" stroke-miterlimit="10"/>
<path d="M37.2779 289.589L41.874 295.393L49.8437 300.394C50.3888 302.022 50.1163 302.427 49.9837 302.965C49.8511 303.502 47.413 303.642 44.4447 303.502C41.4763 303.362 34.1696 304.313 32.0114 303.642C29.8533 302.972 22.9516 301.072 22.1413 300.696C21.3311 300.32 19.9832 299.886 20.3883 298.398C20.7934 296.91 21.9793 291.703 21.9793 291.703C24.2228 290.26 26.7535 289.324 29.3955 288.959C32.0375 288.594 34.7273 288.809 37.2779 289.589Z" fill="white" stroke="#263238" stroke-miterlimit="10"/>
<path d="M44.4447 303.502C47.3909 303.642 49.8437 303.502 49.9837 302.965C50.1511 302.511 50.2018 302.022 50.131 301.543C46.4482 301.705 36.8728 302.073 34.1696 301.749C31.0833 301.374 22.1192 298.067 20.6093 297.507C20.5209 297.853 20.4472 298.155 20.3883 298.369C19.9832 299.842 21.3311 300.262 22.1413 300.667C22.9516 301.072 29.8459 302.965 32.0114 303.613C34.1769 304.261 41.4689 303.37 44.4447 303.502Z" fill="white" stroke="#263238" stroke-miterlimit="10"/>
<path d="M31.4516 195.713L35.2744 242.073L23.3935 284.889L21.692 291.681C21.692 291.681 23.0178 292.807 26.5976 292.623C30.1773 292.439 37.3515 290.738 37.3515 290.738C37.8804 289.753 38.1348 288.643 38.0881 287.526C37.8966 286.053 37.1452 285.456 37.1452 284.889C37.1452 284.322 52.9815 242.065 52.9815 242.065L54.4915 217.552L65.238 244.894L72.2207 287.143C72.2207 287.143 72.5964 289.22 73.1635 289.029C73.7307 288.837 83.1588 285.449 83.1588 285.449L86.7385 285.825C86.7385 285.825 87.1215 280.352 85.6115 279.196C84.768 278.596 84.0603 277.826 83.5344 276.934L82.0613 236.754L67.3299 195.455L66.0114 190.358L32.0629 192.244L31.4516 195.713Z" fill="#263238" stroke="#263238" stroke-miterlimit="10"/>
<path d="M31.4515 195.705L31.7535 198.239L67.3372 195.484L65.8052 192.163L31.4515 195.705Z" fill="#92E3A9" stroke="#263238" stroke-miterlimit="10"/>
<path d="M27.4815 137.877C27.4815 137.877 25.316 145.243 25.5591 148.58C25.8021 151.916 29.9785 178.514 29.9785 178.514L31.54 188.73C31.54 188.73 30.3394 191.861 30.4572 192.582C30.5751 193.304 30.3394 195.227 31.4221 195.705C32.5049 196.184 41.6384 195.588 51.0149 195.344C60.3915 195.101 64.0007 194.748 65.2013 194.262C66.4019 193.776 67.8455 192.096 67.6098 190.778C67.2981 189.508 66.8943 188.262 66.4018 187.051C66.4018 187.051 65.9231 154.951 65.2013 150.023C64.4794 145.096 63.6397 138.356 61.1133 135.837C58.5868 133.318 54.3811 132.228 54.3811 132.228L51.0149 138.481C51.0149 138.481 39.4729 133.789 35.2671 133.325C31.0612 132.861 27.4815 137.877 27.4815 137.877Z" fill="#92E3A9" stroke="#263238" stroke-miterlimit="10"/>
<path d="M34.5673 161.293C33.4236 161.673 32.2607 161.993 31.0834 162.25" stroke="#263238" stroke-miterlimit="10"/>
<path d="M45.196 157.735C45.196 157.735 40.7103 159.304 36.7255 160.593" stroke="#263238" stroke-miterlimit="10"/>
<path d="M33.978 170.08C33.3606 170.528 32.7106 170.929 32.0334 171.281" stroke="#263238" stroke-miterlimit="10"/>
<path d="M46.3524 159.105C46.3524 159.105 40.6661 164.792 36.0404 168.519" stroke="#263238" stroke-miterlimit="10"/>
<path d="M52.7311 144.727C52.7311 144.727 42.9936 139.571 38.3017 138.098C33.6097 136.625 31.9303 136.412 30.8476 136.625C29.7648 136.839 25.559 141.192 25.1981 139.991C24.8372 138.791 26.5165 131.093 27.0027 129.414C27.4888 127.735 34.8177 125.687 36.858 125.083C38.8983 124.479 49.1219 128.449 51.4052 129.171C53.6886 129.893 55.8247 132.537 55.8247 134.327C55.8247 136.117 52.7311 144.727 52.7311 144.727Z" fill="#92E3A9" stroke="#263238" stroke-miterlimit="10"/>
<path d="M27.9381 132.014C27.9381 132.014 29.8974 130.438 31.0759 131.226C32.2544 132.014 52.0608 143.173 52.0608 143.173L53.0699 132.795" stroke="#263238" stroke-miterlimit="10"/>
<path d="M55.8615 100.445C55.8615 100.445 57.5704 105.601 57.5704 106.882C57.5704 108.164 56.9664 110.3 57.3641 111.103C57.7619 111.906 60.1852 115.626 59.7801 116.259L57.8724 119.073C57.8724 119.073 57.4672 126.615 57.0695 127.418C56.6718 128.221 54.0496 128.155 52.8416 128.155H50.3299C50.3299 128.155 52.5396 143.026 52.0387 143.232C51.5378 143.438 37.16 128.685 37.16 128.685L37.6683 117.931C37.6683 117.931 32.6375 110.492 33.4403 107.177C34.2432 103.862 42.0877 101.248 46.3082 100.143C50.5288 99.038 55.8615 100.445 55.8615 100.445Z" fill="white" stroke="#263238" stroke-miterlimit="10"/>
<path d="M54.7419 111.744C54.8819 112.48 54.6682 113.217 54.2558 113.261C53.8433 113.305 53.4013 112.782 53.2614 112.016C53.1215 111.25 53.3351 110.543 53.7402 110.492C54.1453 110.44 54.602 111.007 54.7419 111.744Z" fill="#263238"/>
<path d="M52.0387 109.092C52.4746 108.586 53.051 108.22 53.6949 108.042C54.3387 107.864 55.021 107.88 55.6553 108.09" stroke="#263238" stroke-miterlimit="10"/>
<path d="M50.5288 117.334C51.5524 118.714 53.0652 119.65 54.7567 119.949" stroke="#263238" stroke-miterlimit="10"/>
<path d="M39.4728 114.02C39.4728 114.02 42.0877 114.418 42.0877 113.718C42.0877 113.018 41.7857 110.403 41.7857 110.403C41.7857 110.403 45.3065 107.582 45.2034 106.278C45.1002 104.975 43.4945 103.862 43.5976 103.465C43.7008 103.067 48.4222 101.653 52.2376 101.653C56.053 101.653 56.8632 102.456 58.0712 100.651C59.2792 98.8464 60.1852 96.4305 57.8724 93.9114C55.5595 91.3923 54.4547 92.5046 53.2467 92.2026C52.0387 91.9006 48.5179 88.3871 46.1093 89.19C45.4268 89.4006 44.814 89.7917 44.3356 90.322C43.8571 90.8523 43.5309 91.5021 43.3914 92.2026C43.3914 92.2026 38.8689 89.19 36.9611 90.7957C35.872 91.6469 35.1224 92.8588 34.8472 94.2134C33.9608 94.2789 33.1065 94.5724 32.367 95.0653C31.6275 95.5583 31.028 96.2341 30.6267 97.0271C29.3229 99.7451 29.4187 101.255 29.4187 101.255C29.4187 101.255 26.9069 102.728 27.0101 104.975C26.9956 106.097 27.2722 107.203 27.8129 108.186C27.8129 108.186 25.699 109.092 27.8129 112.311C29.9269 115.53 30.7592 115.927 30.7592 115.927C30.7592 115.927 28.3433 116.229 30.7592 118.24C33.1752 120.251 37.5946 121.054 38.5963 121.555C39.598 122.056 39.8043 118.741 39.8043 116.73C39.853 115.814 39.7408 114.897 39.4728 114.02Z" fill="#263238" stroke="#263238" stroke-miterlimit="10"/>
<path d="M41.0859 115.022C41.0859 115.022 38.4711 111.604 37.0643 112.709C35.6574 113.814 36.556 118.645 38.066 120.148C39.576 121.651 41.7488 119.043 41.7488 119.043" fill="white"/>
<path d="M41.0859 115.022C41.0859 115.022 38.4711 111.604 37.0643 112.709C35.6574 113.814 36.556 118.645 38.066 120.148C39.576 121.651 41.7488 119.043 41.7488 119.043" stroke="#263238" stroke-miterlimit="10"/>
<path d="M50.3299 128.096L45.9989 128.022L51.0444 133.193L50.3299 128.096Z" fill="#263238" stroke="#263238" stroke-miterlimit="10"/>
<path d="M39.7233 140.765L60.3473 150.259L77.3399 127.366C77.3399 127.366 77.0969 121.599 77.3399 120.737C77.583 119.876 79.6233 116.885 79.9842 116.406C80.3451 115.927 81.067 116.406 81.1848 117.143C81.3027 117.879 80.8239 118.469 80.5808 119.065C80.3377 119.662 79.8442 120.988 79.8442 120.988L80.4409 122.792L86.8122 117.747C86.8122 117.747 88.2853 115.817 88.7346 116.664C88.8792 116.914 88.9471 117.201 88.9301 117.489C88.9131 117.777 88.8118 118.053 88.6389 118.285L85.6926 122.196L87.6225 122.314L92.307 118.343C92.307 118.343 93.1467 117.983 93.2719 119.08C93.3061 119.416 93.2628 119.755 93.1453 120.072C93.0278 120.389 92.8394 120.674 92.5943 120.907L89.7217 123.588L87.8581 124.73L93.3898 122.446C93.3898 122.446 94.1264 123.183 93.8686 123.529L87.8581 128.221L92.2775 127.484C92.2775 127.484 92.8815 128.324 92.5206 128.803L80.2568 132.294C80.2568 132.294 63.1462 164.438 62.9031 164.924C62.6601 165.41 60.141 166.486 58.2186 165.882C56.2961 165.278 31.702 154.583 31.702 154.583" fill="#92E3A9"/>
<path d="M39.7233 140.765L60.3473 150.259L77.3399 127.366C77.3399 127.366 77.0969 121.599 77.3399 120.737C77.583 119.876 79.6233 116.885 79.9842 116.406C80.3451 115.927 81.067 116.406 81.1848 117.143C81.3027 117.879 80.8239 118.469 80.5808 119.065C80.3377 119.662 79.8442 120.988 79.8442 120.988L80.4409 122.792L86.8122 117.747C86.8122 117.747 88.2853 115.817 88.7346 116.664C88.8792 116.914 88.9471 117.201 88.9301 117.489C88.9131 117.777 88.8118 118.053 88.6389 118.285L85.6926 122.196L87.6225 122.314L92.307 118.343C92.307 118.343 93.1467 117.983 93.2719 119.08C93.3061 119.416 93.2628 119.755 93.1453 120.072C93.0278 120.389 92.8394 120.674 92.5943 120.907L89.7217 123.588L87.8581 124.73L93.3898 122.446C93.3898 122.446 94.1264 123.183 93.8686 123.529L87.8581 128.221L92.2776 127.484C92.2776 127.484 92.8816 128.324 92.5206 128.803L80.2568 132.294C80.2568 132.294 63.1462 164.438 62.9031 164.924C62.6601 165.41 60.141 166.486 58.2186 165.882C56.2961 165.278 31.702 154.583 31.702 154.583" stroke="#263238" stroke-miterlimit="10"/>
<path d="M71.3957 149.198C75.8152 140.846 80.3893 132.301 80.3893 132.301L92.6531 128.81C93.0141 128.331 92.4101 127.492 92.4101 127.492L87.9907 128.228L94.0011 123.536C94.2441 123.175 93.5223 122.453 93.5223 122.453L87.9907 124.737L89.8542 123.595L92.7268 120.914C92.9719 120.682 93.1603 120.396 93.2778 120.079C93.3953 119.763 93.4386 119.423 93.4045 119.087C93.2792 118.005 92.4395 118.351 92.4395 118.351L87.755 122.321L85.8252 122.203L88.7714 118.292C88.9444 118.061 89.0456 117.784 89.0626 117.496C89.0797 117.208 89.0117 116.921 88.8672 116.671C88.3884 115.824 86.9447 117.754 86.9447 117.754L80.5734 122.8L79.9768 120.995C79.9768 120.995 80.4556 119.677 80.7134 119.073C80.9712 118.469 81.4499 117.872 81.3173 117.15C81.1847 116.428 80.4777 115.95 80.1167 116.414C79.7558 116.878 77.7081 119.898 77.4724 120.745C77.2367 121.592 77.4724 127.374 77.4724 127.374L64.7666 144.359L71.3957 149.198Z" fill="white" stroke="#263238" stroke-miterlimit="10"/>
<path d="M244.814 52.3247V275.542C244.814 278.484 243.645 281.306 241.565 283.386C239.485 285.466 236.663 286.635 233.721 286.635H137.267C134.325 286.635 131.504 285.466 129.423 283.386C127.343 281.306 126.174 278.484 126.174 275.542V52.3173C126.184 49.3836 127.356 46.5735 129.434 44.5025C131.512 42.4316 134.326 41.2687 137.26 41.2687H178.662L178.699 41.394C179.73 45.0768 182.102 47.5222 184.739 47.5222H186.249C188.886 47.5222 191.258 45.1063 192.289 41.394L192.333 41.2687H233.721C236.657 41.2687 239.473 42.4324 241.552 44.5047C243.631 46.577 244.804 49.3891 244.814 52.3247Z" fill="white" stroke="#263238" stroke-linecap="round" stroke-linejoin="round"/>
<path d="M244.814 58.6444V52.3247C244.814 49.3827 243.645 46.5612 241.565 44.4809C239.485 42.4006 236.663 41.2319 233.721 41.2319H192.333L192.289 41.3571C191.258 45.04 188.886 47.4854 186.249 47.4854H184.739C182.102 47.4854 179.73 45.0694 178.699 41.3571L178.662 41.2319H137.26C134.326 41.2319 131.512 42.3948 129.434 44.4657C127.356 46.5367 126.184 49.3468 126.174 52.2805V58.6076L244.814 58.6444Z" fill="#263238" stroke="#263238" stroke-miterlimit="10"/>
<path d="M126.174 269.583V275.542C126.174 278.484 127.343 281.306 129.423 283.386C131.504 285.466 134.325 286.635 137.267 286.635H233.758C236.7 286.635 239.521 285.466 241.602 283.386C243.682 281.306 244.851 278.484 244.851 275.542V269.583H126.174Z" fill="#263238" stroke="#263238" stroke-miterlimit="10"/>
<path d="M252.356 105.638V83.3416H250.338V54.7995C250.338 50.1339 248.485 45.6592 245.187 42.3594C241.888 39.0596 237.414 37.2048 232.749 37.2029H138.239C133.574 37.2048 129.1 39.0596 125.801 42.3594C122.503 45.6592 120.65 50.1339 120.65 54.7995V281.612C120.65 286.277 122.503 290.75 125.802 294.049C129.101 297.348 133.574 299.201 138.239 299.201H232.749C237.414 299.201 241.888 297.348 245.186 294.049C248.485 290.75 250.338 286.277 250.338 281.612V124.641H252.356V111.464H250.338V105.638H252.356ZM244.814 269.038C244.814 273.705 242.96 278.181 239.66 281.481C236.36 284.781 231.884 286.635 227.217 286.635H143.771C139.104 286.635 134.628 284.781 131.328 281.481C128.028 278.181 126.174 273.705 126.174 269.038V58.8212C126.176 54.1556 128.031 49.6817 131.331 46.3833C134.631 43.0848 139.105 41.2319 143.771 41.2319H178.662L178.699 41.3571C179.73 45.04 182.102 47.4854 184.739 47.4854H186.249C188.886 47.4854 191.258 45.0694 192.289 41.3571L192.333 41.2319H227.217C231.883 41.2319 236.357 43.0848 239.657 46.3833C242.957 49.6817 244.812 54.1556 244.814 58.8212V269.038Z" fill="#92E3A9" stroke="#263238" stroke-linecap="round" stroke-linejoin="round"/>
<path d="M231.335 39.6335H139.654C135.161 39.6335 130.852 41.4184 127.674 44.5955C124.497 47.7726 122.713 52.0816 122.713 56.5747V279.755C122.713 284.248 124.497 288.558 127.674 291.735C130.852 294.912 135.161 296.697 139.654 296.697H231.335C235.828 296.697 240.137 294.912 243.314 291.735C246.491 288.558 248.276 284.248 248.276 279.755V56.5747C248.276 52.0816 246.491 47.7726 243.314 44.5955C240.137 41.4184 235.828 39.6335 231.335 39.6335ZM244.814 269.664C244.814 274.157 243.029 278.467 239.852 281.644C236.675 284.821 232.366 286.606 227.873 286.606H143.167C138.674 286.606 134.365 284.821 131.188 281.644C128.011 278.467 126.226 274.157 126.226 269.664V58.1951C126.226 53.7021 128.011 49.393 131.188 46.2159C134.365 43.0389 138.674 41.254 143.167 41.254H178.692L178.729 41.3792C179.76 45.0621 182.132 47.5075 184.769 47.5075H186.279C188.915 47.5075 191.287 45.0915 192.318 41.3792L192.363 41.254H227.873C232.366 41.254 236.675 43.0389 239.852 46.2159C243.029 49.393 244.814 53.7021 244.814 58.1951V269.664Z" fill="#263238" stroke="#263238" stroke-linecap="round" stroke-linejoin="round"/>
<path d="M186.779 42.0716C186.779 41.634 186.606 41.2144 186.296 40.9049C185.987 40.5955 185.567 40.4217 185.13 40.4217C184.913 40.4217 184.698 40.4644 184.498 40.5473C184.298 40.6302 184.116 40.7517 183.963 40.9049C183.81 41.0582 183.688 41.24 183.605 41.4402C183.522 41.6404 183.48 41.8549 183.48 42.0716C183.48 42.2883 183.522 42.5028 183.605 42.703C183.688 42.9032 183.81 43.0851 183.963 43.2383C184.116 43.3915 184.298 43.513 184.498 43.5959C184.698 43.6789 184.913 43.7215 185.13 43.7215C185.567 43.7215 185.987 43.5477 186.296 43.2383C186.606 42.9289 186.779 42.5092 186.779 42.0716Z" fill="white"/>
<path d="M136.722 48.3987C136.722 50.0707 134.844 50.6747 134.836 51.949V52.0374H136.656V52.5972H134.225V52.1258C134.225 50.3359 136.103 49.9824 136.103 48.4429C136.103 47.8684 135.912 47.5664 135.455 47.5664C134.999 47.5664 134.8 47.8905 134.8 48.384V48.8775H134.225V48.3987C134.225 47.5517 134.615 46.9919 135.47 46.9919C136.324 46.9919 136.722 47.5517 136.722 48.3987Z" fill="white"/>
<path d="M139.757 48.3987V48.5461C139.782 48.7831 139.73 49.022 139.608 49.2266C139.486 49.4313 139.3 49.5905 139.079 49.6804C139.302 49.7719 139.489 49.9337 139.611 50.1411C139.733 50.3485 139.785 50.5902 139.757 50.8294V51.2566C139.757 52.1037 139.359 52.6635 138.505 52.6635C137.65 52.6635 137.26 52.1037 137.26 51.2566V50.881H137.834V51.3008C137.834 51.7943 138.041 52.0963 138.49 52.0963C138.939 52.0963 139.138 51.8091 139.138 51.2419V50.8147C139.138 50.2696 138.91 50.0045 138.402 49.9897H138.07V49.4373H138.431C138.525 49.4378 138.618 49.4185 138.704 49.3807C138.79 49.343 138.867 49.2876 138.93 49.2182C138.993 49.1487 139.041 49.0668 139.071 48.9776C139.1 48.8885 139.111 48.7942 139.101 48.7007V48.3987C139.101 47.8316 138.902 47.537 138.453 47.537C138.004 47.537 137.798 47.8463 137.798 48.3472V48.6344H137.223V48.3987C137.223 47.5517 137.621 47.0066 138.468 47.0066C139.315 47.0066 139.757 47.5443 139.757 48.3987Z" fill="white"/>
<path d="M140.95 48.8112V49.5478H140.353V48.8112H140.95ZM140.95 51.8312V52.5677H140.353V51.8312H140.95Z" fill="white"/>
<path d="M142.202 49.3121C142.283 49.1665 142.404 49.0465 142.549 48.9657C142.695 48.885 142.861 48.8468 143.027 48.8554C143.764 48.8554 144.058 49.3784 144.058 50.1665V51.2493C144.058 52.0963 143.653 52.6561 142.806 52.6561C141.959 52.6561 141.561 52.0963 141.561 51.2493V50.881H142.136V51.2935C142.136 51.787 142.342 52.089 142.791 52.089C143.241 52.089 143.44 51.787 143.44 51.2935V50.2181C143.44 49.7172 143.233 49.4152 142.791 49.4152C142.711 49.4112 142.63 49.4237 142.554 49.4519C142.478 49.4801 142.409 49.5234 142.35 49.5792C142.292 49.635 142.245 49.7021 142.213 49.7765C142.182 49.8509 142.165 49.931 142.165 50.0118V50.1371H141.583L141.738 47.0582H143.948V47.6106H142.32L142.202 49.3121Z" fill="white"/>
<path d="M147.137 48.3987V48.5019H146.526V48.3619C146.526 47.861 146.32 47.5664 145.87 47.5664C145.421 47.5664 145.2 47.8684 145.2 48.465V49.7098C145.263 49.5264 145.384 49.3687 145.545 49.2609C145.706 49.1531 145.898 49.1012 146.091 49.1132C146.828 49.1132 147.122 49.6288 147.122 50.4243V51.264C147.122 52.111 146.703 52.6708 145.856 52.6708C145.009 52.6708 144.581 52.111 144.581 51.264V48.3987C144.581 47.5149 144.979 46.9698 145.856 46.9698C146.732 46.9698 147.137 47.5369 147.137 48.3987ZM145.229 50.4759V51.3082C145.229 51.8017 145.436 52.1037 145.885 52.1037C146.334 52.1037 146.541 51.8017 146.541 51.3082V50.4611C146.541 49.9603 146.327 49.6583 145.885 49.6583C145.443 49.6583 145.229 49.9603 145.229 50.4611V50.4759Z" fill="white"/>
<path d="M207.654 48.6271H206.092V52.5383H207.654V48.6271Z" fill="white"/>
<path d="M209.746 47.8463H208.177V52.5456H209.746V47.8463Z" fill="white"/>
<path d="M211.83 47.2865H210.261V52.5383H211.83V47.2865Z" fill="white"/>
<path d="M213.915 46.3216H212.353V52.5456H213.915V46.3216Z" fill="white"/>
<path d="M233.286 52.4351H223.866V46.6973H233.257L233.286 52.4351ZM224.448 51.9122H232.793V47.2202H224.448V51.9122Z" fill="white"/>
<path d="M230.156 47.7874H225.199V51.345H230.156V47.7874Z" fill="white"/>
<path d="M234.141 48.8922H232.962V50.2475H234.141V48.8922Z" fill="white"/>
<path d="M220.455 51.183C220.391 51.1833 220.328 51.1681 220.271 51.1388C218.364 50.0045 217.097 51.0578 217.045 51.1388C217.013 51.1715 216.975 51.1975 216.932 51.2153C216.89 51.233 216.844 51.2422 216.798 51.2422C216.752 51.2422 216.707 51.233 216.665 51.2153C216.622 51.1975 216.584 51.1715 216.552 51.1388C216.487 51.0728 216.451 50.9842 216.451 50.892C216.451 50.7998 216.487 50.7113 216.552 50.6453C216.625 50.5864 218.238 49.1721 220.603 50.6453C220.643 50.668 220.678 50.6987 220.706 50.7355C220.734 50.7723 220.754 50.8144 220.765 50.8592C220.776 50.9041 220.778 50.9507 220.77 50.9962C220.763 51.0418 220.746 51.0853 220.721 51.1241C220.683 51.152 220.64 51.1718 220.594 51.1819C220.549 51.1921 220.501 51.1924 220.455 51.183Z" fill="white"/>
<path d="M221.163 50.0045C221.098 50.0048 221.035 49.9896 220.978 49.9603C218.216 48.3177 216.36 49.9014 216.338 49.9161C216.306 49.9488 216.267 49.9748 216.225 49.9926C216.183 50.0103 216.137 50.0195 216.091 50.0195C216.045 50.0195 216 50.0103 215.957 49.9926C215.915 49.9748 215.877 49.9488 215.844 49.9161C215.78 49.8501 215.744 49.7615 215.744 49.6693C215.744 49.5771 215.78 49.4886 215.844 49.4226C215.844 49.4226 218.113 47.4854 221.31 49.4226C221.35 49.4453 221.385 49.476 221.413 49.5128C221.441 49.5496 221.461 49.5917 221.472 49.6365C221.483 49.6814 221.485 49.728 221.477 49.7735C221.47 49.8191 221.453 49.8626 221.428 49.9014C221.394 49.9372 221.353 49.965 221.307 49.9828C221.261 50.0006 221.212 50.008 221.163 50.0045Z" fill="white"/>
<path d="M221.803 48.6418C221.738 48.6431 221.674 48.6251 221.619 48.5902C218.121 46.5131 215.793 48.4724 215.727 48.5534C215.661 48.6177 215.572 48.6538 215.48 48.6538C215.388 48.6538 215.299 48.6177 215.233 48.5534C215.169 48.4874 215.133 48.3988 215.133 48.3067C215.133 48.2145 215.169 48.1259 215.233 48.0599C215.233 48.0599 218.025 45.6661 221.98 48.0157C222.06 48.0647 222.118 48.1427 222.141 48.2334C222.164 48.3242 222.152 48.4204 222.105 48.5018C222.07 48.5482 222.025 48.5852 221.972 48.6096C221.919 48.634 221.861 48.6451 221.803 48.6418Z" fill="white"/>
<path d="M219.395 51.7722C219.396 51.888 219.374 52.0027 219.33 52.1099C219.287 52.2171 219.222 52.3146 219.141 52.3968C219.059 52.479 218.962 52.5442 218.855 52.5887C218.749 52.6332 218.634 52.6561 218.518 52.6561C218.284 52.6561 218.059 52.563 217.893 52.3972C217.728 52.2315 217.634 52.0067 217.634 51.7722C217.634 51.6565 217.657 51.5419 217.702 51.4351C217.746 51.3283 217.812 51.2313 217.894 51.1498C217.976 51.0683 218.073 51.0039 218.181 50.9603C218.288 50.9167 218.403 50.8947 218.518 50.8957C218.751 50.8957 218.974 50.9881 219.138 51.1524C219.302 51.3168 219.395 51.5398 219.395 51.7722Z" fill="white"/>
<path d="M230.657 157.853H140.744C137.827 157.853 135.463 160.218 135.463 163.134V214.908C135.463 217.825 137.827 220.189 140.744 220.189H230.657C233.574 220.189 235.938 217.825 235.938 214.908V163.134C235.938 160.218 233.574 157.853 230.657 157.853Z" fill="#92E3A9" stroke="#263238" stroke-linecap="round" stroke-linejoin="round"/>
<path d="M153.796 206.99H143.16V211.387H153.796V206.99Z" fill="#263238"/>
<path d="M167.916 206.99H157.28V211.387H167.916V206.99Z" fill="#263238"/>
<path d="M182.036 206.99H171.4V211.387H182.036V206.99Z" fill="#263238"/>
<path d="M196.149 206.99H185.513V211.387H196.149V206.99Z" fill="#263238"/>
<path d="M210.269 206.99H199.633V211.387H210.269V206.99Z" fill="#263238"/>
<path d="M224.389 206.99H213.753V211.387H224.389V206.99Z" fill="#263238"/>
<path d="M163.821 179.486H145.598C144.251 179.486 143.16 180.578 143.16 181.924V194.284C143.16 195.63 144.251 196.722 145.598 196.722H163.821C165.167 196.722 166.259 195.63 166.259 194.284V181.924C166.259 180.578 165.167 179.486 163.821 179.486Z" fill="white" stroke="#263238" stroke-linecap="round" stroke-linejoin="round"/>
<path d="M193.762 165.182H143.16V167.745H193.762V165.182Z" fill="#263238"/>
<path d="M207.659 114.783C210.804 101.26 202.39 87.748 188.867 84.6035C175.344 81.4591 161.832 89.8727 158.687 103.396C155.543 116.919 163.957 130.431 177.48 133.575C191.003 136.72 204.515 128.306 207.659 114.783Z" fill="#263238"/>
<path d="M183.48 132.53V128.442C180.46 128.324 178.201 127.357 176.703 125.54C175.205 123.723 174.398 121.022 174.28 117.437L180.489 116.377C180.512 117.617 180.665 118.851 180.946 120.06C181.11 120.886 181.5 121.651 182.073 122.269C182.329 122.514 182.632 122.706 182.963 122.832C183.295 122.959 183.648 123.018 184.003 123.006C184.365 123.049 184.733 122.99 185.063 122.836C185.394 122.681 185.675 122.436 185.873 122.129C186.22 121.512 186.396 120.812 186.382 120.104C186.427 118.774 186.067 117.461 185.35 116.34C184.54 115.201 183.584 114.174 182.507 113.283L178.773 110.072C177.956 109.318 177.191 108.511 176.482 107.656C175.794 106.811 175.252 105.858 174.876 104.835C174.455 103.636 174.252 102.371 174.28 101.1C174.28 98.3382 175.068 96.1948 176.637 94.648C178.358 93.0448 180.599 92.1164 182.949 92.0332V88.1146H185.063V92.0332C186.429 92.0605 187.766 92.4302 188.952 93.1086C189.915 93.6899 190.711 94.5092 191.265 95.4877C191.802 96.4647 192.187 97.5178 192.407 98.6107C192.636 99.6907 192.784 100.786 192.849 101.888L186.558 102.817C186.54 101.849 186.452 100.884 186.293 99.9292C186.197 99.221 185.926 98.5478 185.505 97.9699C185.285 97.7281 185.011 97.5424 184.705 97.4284C184.398 97.3143 184.069 97.2752 183.745 97.3144C183.377 97.3069 183.014 97.3912 182.687 97.5597C182.36 97.7282 182.081 97.9755 181.874 98.2793C181.451 98.886 181.227 99.6093 181.233 100.349C181.178 101.512 181.518 102.66 182.198 103.605C182.873 104.453 183.612 105.248 184.408 105.984L188.09 109.151C189.059 110.031 189.955 110.987 190.772 112.009C191.598 113.041 192.265 114.19 192.753 115.419C193.271 116.788 193.521 118.243 193.49 119.706C193.508 121.177 193.183 122.633 192.539 123.956C191.924 125.214 190.983 126.285 189.814 127.057C188.552 127.871 187.106 128.355 185.608 128.464V132.596L183.48 132.53Z" fill="white" stroke="#263238" stroke-linecap="round" stroke-linejoin="round"/>
<path d="M202.91 102.655C206.844 102.655 210.033 99.4656 210.033 95.5319C210.033 91.5982 206.844 88.4092 202.91 88.4092C198.977 88.4092 195.788 91.5982 195.788 95.5319C195.788 99.4656 198.977 102.655 202.91 102.655Z" fill="#92E3A9" stroke="#263238" stroke-linecap="round" stroke-linejoin="round"/>
<path d="M202.888 98.6402C202.745 98.6356 202.605 98.5995 202.478 98.5346C202.351 98.4696 202.239 98.3774 202.152 98.2645L198.638 93.7126C198.559 93.6112 198.501 93.4953 198.467 93.3714C198.434 93.2475 198.425 93.1181 198.441 92.9907C198.457 92.8633 198.499 92.7404 198.563 92.6292C198.627 92.5179 198.713 92.4205 198.815 92.3425C198.916 92.2636 199.032 92.2055 199.156 92.1717C199.28 92.1378 199.409 92.1289 199.537 92.1453C199.664 92.1617 199.787 92.2033 199.898 92.2675C200.01 92.3316 200.107 92.4172 200.185 92.5193L202.969 96.1211L210.247 87.7169C210.418 87.5218 210.66 87.4024 210.919 87.3844C211.178 87.3665 211.434 87.4516 211.631 87.6211C211.826 87.7928 211.946 88.0346 211.964 88.2938C211.982 88.5531 211.897 88.8089 211.727 89.0059L203.669 98.3087C203.571 98.4181 203.451 98.5046 203.316 98.5619C203.181 98.6192 203.035 98.6459 202.888 98.6402Z" fill="#263238"/>
</g>
<defs>
<clipPath id="clip0_9_1041">
<rect width="341.032" height="320.09" fill="white"/>
</clipPath>
</defs>
</svg>
